<svg width="371" height="41" viewBox="0 0 371 41" fill="none" xmlns="http://www.w3.org/2000/svg">
<path d="M0.983398 39.5134H370.017" stroke="black" stroke-width="0.5"/>
<path d="M1.864 13.7C1.864 12.464 2.134 11.36 2.674 10.388C3.214 9.404 3.952 8.642 4.888 8.102C5.824 7.55 6.868 7.274 8.02 7.274C9.424 7.274 10.624 7.61 11.62 8.282C12.628 8.942 13.36 9.878 13.816 11.09H12.34C11.98 10.238 11.428 9.572 10.684 9.092C9.952 8.612 9.064 8.372 8.02 8.372C7.096 8.372 6.262 8.588 5.518 9.02C4.786 9.452 4.21 10.076 3.79 10.892C3.37 11.696 3.16 12.632 3.16 13.7C3.16 14.768 3.37 15.704 3.79 16.508C4.21 17.312 4.786 17.93 5.518 18.362C6.262 18.794 7.096 19.01 8.02 19.01C9.064 19.01 9.952 18.776 10.684 18.308C11.428 17.828 11.98 17.168 12.34 16.328H13.816C13.36 17.528 12.628 18.458 11.62 19.118C10.612 19.778 9.412 20.108 8.02 20.108C6.868 20.108 5.824 19.838 4.888 19.298C3.952 18.746 3.214 17.984 2.674 17.012C2.134 16.04 1.864 14.936 1.864 13.7ZM22.1587 20.126C20.9947 20.126 19.9387 19.856 18.9907 19.316C18.0427 18.764 17.2927 18.002 16.7407 17.03C16.2007 16.046 15.9307 14.936 15.9307 13.7C15.9307 12.464 16.2007 11.36 16.7407 10.388C17.2927 9.404 18.0427 8.642 18.9907 8.102C19.9387 7.55 20.9947 7.274 22.1587 7.274C23.3347 7.274 24.3967 7.55 25.3447 8.102C26.2927 8.642 27.0367 9.404 27.5767 10.388C28.1167 11.36 28.3867 12.464 28.3867 13.7C28.3867 14.936 28.1167 16.046 27.5767 17.03C27.0367 18.002 26.2927 18.764 25.3447 19.316C24.3967 19.856 23.3347 20.126 22.1587 20.126ZM22.1587 19.028C23.0947 19.028 23.9347 18.812 24.6787 18.38C25.4227 17.948 26.0107 17.33 26.4427 16.526C26.8747 15.71 27.0907 14.768 27.0907 13.7C27.0907 12.632 26.8747 11.696 26.4427 10.892C26.0107 10.088 25.4227 9.47 24.6787 9.038C23.9347 8.606 23.0947 8.39 22.1587 8.39C21.2227 8.39 20.3827 8.606 19.6387 9.038C18.8947 9.47 18.3067 10.088 17.8747 10.892C17.4427 11.696 17.2267 12.632 17.2267 13.7C17.2267 14.768 17.4427 15.71 17.8747 16.526C18.3067 17.33 18.8947 17.948 19.6387 18.38C20.3827 18.812 21.2227 19.028 22.1587 19.028ZM40.3583 20H39.0983L32.1323 9.416V20H30.8723V7.418H32.1323L39.0983 17.984V7.418H40.3583V20ZM50.7541 7.418V8.462H47.2621V20H46.0021V8.462H42.4921V7.418H50.7541ZM60.2137 17.012H54.4897L53.3917 20H52.0597L56.6497 7.58H58.0717L62.6437 20H61.3117L60.2137 17.012ZM59.8357 15.968L57.3517 9.164L54.8677 15.968H59.8357ZM64.2699 13.7C64.2699 12.464 64.5399 11.36 65.0799 10.388C65.6199 9.404 66.3579 8.642 67.2939 8.102C68.2299 7.55 69.2739 7.274 70.4259 7.274C71.8299 7.274 73.0299 7.61 74.0259 8.282C75.0339 8.942 75.7659 9.878 76.2219 11.09H74.7459C74.3859 10.238 73.8339 9.572 73.0899 9.092C72.3579 8.612 71.4699 8.372 70.4259 8.372C69.5019 8.372 68.6679 8.588 67.9239 9.02C67.1919 9.452 66.6159 10.076 66.1959 10.892C65.7759 11.696 65.5659 12.632 65.5659 13.7C65.5659 14.768 65.7759 15.704 66.1959 16.508C66.6159 17.312 67.1919 17.93 67.9239 18.362C68.6679 18.794 69.5019 19.01 70.4259 19.01C71.4699 19.01 72.3579 18.776 73.0899 18.308C73.8339 17.828 74.3859 17.168 74.7459 16.328H76.2219C75.7659 17.528 75.0339 18.458 74.0259 19.118C73.0179 19.778 71.8179 20.108 70.4259 20.108C69.2739 20.108 68.2299 19.838 67.2939 19.298C66.3579 18.746 65.6199 17.984 65.0799 17.012C64.5399 16.04 64.2699 14.936 64.2699 13.7ZM86.2746 7.418V8.462H82.7826V20H81.5226V8.462H78.0126V7.418H86.2746ZM94.7696 7.418V15.338C94.7696 16.586 95.0636 17.51 95.6516 18.11C96.2516 18.71 97.0676 19.01 98.0996 19.01C99.1316 19.01 99.9356 18.716 100.512 18.128C101.1 17.528 101.394 16.598 101.394 15.338V7.418H102.654V15.32C102.654 16.916 102.228 18.116 101.376 18.92C100.536 19.724 99.4376 20.126 98.0816 20.126C96.7256 20.126 95.6216 19.724 94.7696 18.92C93.9296 18.116 93.5096 16.916 93.5096 15.32V7.418H94.7696ZM109.46 20.126C108.632 20.126 107.9 19.982 107.264 19.694C106.64 19.406 106.148 19.004 105.788 18.488C105.428 17.972 105.236 17.396 105.212 16.76H106.544C106.604 17.372 106.874 17.912 107.354 18.38C107.834 18.836 108.536 19.064 109.46 19.064C110.312 19.064 110.984 18.848 111.476 18.416C111.98 17.972 112.232 17.414 112.232 16.742C112.232 16.202 112.094 15.77 111.818 15.446C111.542 15.11 111.2 14.864 110.792 14.708C110.384 14.54 109.82 14.36 109.1 14.168C108.26 13.94 107.594 13.718 107.102 13.502C106.61 13.286 106.19 12.95 105.842 12.494C105.494 12.038 105.32 11.42 105.32 10.64C105.32 9.992 105.488 9.416 105.824 8.912C106.16 8.396 106.634 7.994 107.246 7.706C107.858 7.418 108.56 7.274 109.352 7.274C110.516 7.274 111.452 7.562 112.16 8.138C112.88 8.702 113.294 9.434 113.402 10.334H112.034C111.95 9.818 111.668 9.362 111.188 8.966C110.708 8.558 110.06 8.354 109.244 8.354C108.488 8.354 107.858 8.558 107.354 8.966C106.85 9.362 106.598 9.908 106.598 10.604C106.598 11.132 106.736 11.558 107.012 11.882C107.288 12.206 107.63 12.452 108.038 12.62C108.458 12.788 109.022 12.968 109.73 13.16C110.546 13.388 111.206 13.616 111.71 13.844C112.214 14.06 112.64 14.396 112.988 14.852C113.336 15.308 113.51 15.92 113.51 16.688C113.51 17.276 113.354 17.834 113.042 18.362C112.73 18.89 112.268 19.316 111.656 19.64C111.044 19.964 110.312 20.126 109.46 20.126Z" fill="black"/>
<path d="M345.534 19.4602L359.855 8.70595M359.855 8.70595L358.425 17.5498M359.855 8.70595L351.421 7.67958" stroke="black" stroke-width="0.605892" stroke-linecap="round" stroke-linejoin="round"/>
</svg>
