<svg width="371" height="41" viewBox="0 0 371 41" fill="none" xmlns="http://www.w3.org/2000/svg">
<path d="M0.983398 39.5134H370.017" stroke="black" stroke-width="0.5"/>
<path d="M12.34 11.09C11.98 10.262 11.428 9.614 10.684 9.146C9.952 8.666 9.088 8.426 8.092 8.426C7.156 8.426 6.316 8.642 5.572 9.074C4.828 9.506 4.24 10.124 3.808 10.928C3.376 11.72 3.16 12.644 3.16 13.7C3.16 14.756 3.376 15.686 3.808 16.49C4.24 17.294 4.828 17.912 5.572 18.344C6.316 18.776 7.156 18.992 8.092 18.992C8.968 18.992 9.754 18.806 10.45 18.434C11.158 18.05 11.722 17.51 12.142 16.814C12.574 16.106 12.82 15.284 12.88 14.348H7.588V13.322H14.212V14.24C14.152 15.344 13.852 16.346 13.312 17.246C12.772 18.134 12.046 18.836 11.134 19.352C10.234 19.868 9.22 20.126 8.092 20.126C6.928 20.126 5.872 19.856 4.924 19.316C3.976 18.764 3.226 18.002 2.674 17.03C2.134 16.046 1.864 14.936 1.864 13.7C1.864 12.464 2.134 11.36 2.674 10.388C3.226 9.404 3.976 8.642 4.924 8.102C5.872 7.55 6.928 7.274 8.092 7.274C9.436 7.274 10.612 7.61 11.62 8.282C12.628 8.954 13.36 9.89 13.816 11.09H12.34ZM17.9601 8.444V13.142H22.7301V14.186H17.9601V18.956H23.2701V20H16.7001V7.4H23.2701V8.444H17.9601ZM33.2948 7.418V8.462H29.8028V20H28.5428V8.462H25.0328V7.418H33.2948ZM44.3998 20.126C43.5718 20.126 42.8398 19.982 42.2038 19.694C41.5798 19.406 41.0878 19.004 40.7278 18.488C40.3678 17.972 40.1758 17.396 40.1518 16.76H41.4838C41.5438 17.372 41.8138 17.912 42.2938 18.38C42.7738 18.836 43.4758 19.064 44.3998 19.064C45.2518 19.064 45.9238 18.848 46.4158 18.416C46.9198 17.972 47.1718 17.414 47.1718 16.742C47.1718 16.202 47.0338 15.77 46.7578 15.446C46.4818 15.11 46.1398 14.864 45.7318 14.708C45.3238 14.54 44.7598 14.36 44.0398 14.168C43.1998 13.94 42.5338 13.718 42.0418 13.502C41.5498 13.286 41.1298 12.95 40.7818 12.494C40.4338 12.038 40.2598 11.42 40.2598 10.64C40.2598 9.992 40.4278 9.416 40.7638 8.912C41.0998 8.396 41.5738 7.994 42.1858 7.706C42.7978 7.418 43.4998 7.274 44.2918 7.274C45.4558 7.274 46.3918 7.562 47.0998 8.138C47.8198 8.702 48.2338 9.434 48.3418 10.334H46.9738C46.8898 9.818 46.6078 9.362 46.1278 8.966C45.6478 8.558 44.9998 8.354 44.1838 8.354C43.4278 8.354 42.7978 8.558 42.2938 8.966C41.7898 9.362 41.5378 9.908 41.5378 10.604C41.5378 11.132 41.6758 11.558 41.9518 11.882C42.2278 12.206 42.5698 12.452 42.9778 12.62C43.3978 12.788 43.9618 12.968 44.6698 13.16C45.4858 13.388 46.1458 13.616 46.6498 13.844C47.1538 14.06 47.5798 14.396 47.9278 14.852C48.2758 15.308 48.4498 15.92 48.4498 16.688C48.4498 17.276 48.2938 17.834 47.9818 18.362C47.6698 18.89 47.2078 19.316 46.5958 19.64C45.9838 19.964 45.2518 20.126 44.3998 20.126ZM58.4266 7.418V8.462H54.9346V20H53.6746V8.462H50.1646V7.418H58.4266ZM67.8862 17.012H62.1622L61.0642 20H59.7322L64.3222 7.58H65.7442L70.3162 20H68.9842L67.8862 17.012ZM67.5082 15.968L65.0242 9.164L62.5402 15.968H67.5082ZM79.2144 20L76.1004 14.744H73.7784V20H72.5184V7.418H76.2984C77.7024 7.418 78.7644 7.754 79.4844 8.426C80.2164 9.098 80.5824 9.98 80.5824 11.072C80.5824 11.984 80.3184 12.764 79.7904 13.412C79.2744 14.048 78.5064 14.462 77.4864 14.654L80.7264 20H79.2144ZM73.7784 13.718H76.3164C77.3004 13.718 78.0384 13.478 78.5304 12.998C79.0344 12.518 79.2864 11.876 79.2864 11.072C79.2864 10.244 79.0464 9.608 78.5664 9.164C78.0864 8.708 77.3304 8.48 76.2984 8.48H73.7784V13.718ZM90.6248 7.418V8.462H87.1328V20H85.8728V8.462H82.3628V7.418H90.6248ZM94.0544 8.444V13.142H98.8244V14.186H94.0544V18.956H99.3644V20H92.7944V7.4H99.3644V8.444H94.0544ZM105.753 7.418C107.145 7.418 108.339 7.67 109.335 8.174C110.331 8.678 111.093 9.404 111.621 10.352C112.149 11.3 112.413 12.428 112.413 13.736C112.413 15.032 112.149 16.154 111.621 17.102C111.093 18.038 110.331 18.758 109.335 19.262C108.339 19.754 107.145 20 105.753 20H102.027V7.418H105.753ZM105.753 18.956C107.505 18.956 108.837 18.5 109.749 17.588C110.673 16.664 111.135 15.38 111.135 13.736C111.135 12.08 110.673 10.79 109.749 9.866C108.837 8.93 107.505 8.462 105.753 8.462H103.287V18.956H105.753Z" fill="black"/>
<path d="M345.534 19.4602L359.855 8.70595M359.855 8.70595L358.425 17.5498M359.855 8.70595L351.421 7.67958" stroke="black" stroke-width="0.605892" stroke-linecap="round" stroke-linejoin="round"/>
</svg>
