<svg width="377" height="337" viewBox="0 0 377 337" fill="none" xmlns="http://www.w3.org/2000/svg">
<path d="M0 46H148V78H0V46Z" fill="#E5CA95"/>
<path d="M108 299H316V331H108V299Z" fill="#E5CA95"/>
<path d="M32.5412 34.9957C31.5278 33.044 30.1203 31.5802 28.3187 30.6044C26.5171 29.591 24.434 29.0843 22.0694 29.0843C19.4797 29.0843 17.1714 29.666 15.1446 30.8296C13.1178 31.9931 11.5226 33.6445 10.3591 35.7839C9.23313 37.9233 8.67013 40.4005 8.67013 43.2155C8.67013 46.0304 9.23313 48.5264 10.3591 50.7033C11.5226 52.8427 13.1178 54.4941 15.1446 55.6577C17.1714 56.8212 19.4797 57.403 22.0694 57.403C25.56 57.403 28.3938 56.4271 30.5707 54.4754C32.7476 52.5237 34.08 49.8776 34.5679 46.5371H19.8737V41.4139H41.4365V46.4245C41.0236 49.4647 39.9352 52.2609 38.1711 54.8132C36.4446 57.3654 34.1738 59.411 31.3589 60.9498C28.5814 62.4512 25.4849 63.2018 22.0694 63.2018C18.3912 63.2018 15.032 62.3573 11.9918 60.6683C8.95163 58.9418 6.53075 56.5585 4.72916 53.5183C2.96511 50.4781 2.08308 47.0438 2.08308 43.2155C2.08308 39.3871 2.96511 35.9528 4.72916 32.9126C6.53075 29.8725 8.95163 27.5079 11.9918 25.8189C15.0695 24.0924 18.4287 23.2291 22.0694 23.2291C26.2356 23.2291 29.9326 24.2613 33.1604 26.3256C36.4258 28.3524 38.7904 31.2424 40.2542 34.9957H32.5412ZM54.7478 36.3469C55.6861 34.7705 56.9247 33.5507 58.4636 32.6874C60.04 31.7867 61.8979 31.3363 64.0372 31.3363V37.9796H62.4046C59.8898 37.9796 57.9757 38.6177 56.662 39.8938C55.3859 41.1699 54.7478 43.3844 54.7478 46.5371V62.864H48.3297V31.843H54.7478V36.3469ZM83.9554 63.3707C81.0278 63.3707 78.3818 62.7139 76.0172 61.4002C73.6526 60.049 71.7947 58.1724 70.4435 55.7703C69.0923 53.3306 68.4167 50.5156 68.4167 47.3253C68.4167 44.1726 69.1111 41.3763 70.4998 38.9367C71.8885 36.497 73.784 34.6204 76.1861 33.3067C78.5882 31.9931 81.2718 31.3363 84.2369 31.3363C87.202 31.3363 89.8856 31.9931 92.2877 33.3067C94.6899 34.6204 96.5853 36.497 97.974 38.9367C99.3627 41.3763 100.057 44.1726 100.057 47.3253C100.057 50.4781 99.344 53.2743 97.9177 55.714C96.4914 58.1536 94.5397 60.049 92.0625 61.4002C89.6229 62.7139 86.9205 63.3707 83.9554 63.3707ZM83.9554 57.7971C85.6069 57.7971 87.1457 57.403 88.572 56.6148C90.0358 55.8266 91.2181 54.6443 92.1188 53.0679C93.0196 51.4915 93.47 49.5773 93.47 47.3253C93.47 45.0733 93.0384 43.1779 92.1751 41.6391C91.3119 40.0627 90.1671 38.8804 88.7409 38.0922C87.3146 37.304 85.7758 36.9099 84.1243 36.9099C82.4729 36.9099 80.934 37.304 79.5077 38.0922C78.119 38.8804 77.0118 40.0627 76.1861 41.6391C75.3603 43.1779 74.9475 45.0733 74.9475 47.3253C74.9475 50.6658 75.792 53.2556 77.481 55.0947C79.2075 56.8963 81.3656 57.7971 83.9554 57.7971ZM148.626 31.843L138.999 62.864H132.243L125.994 39.9501L119.745 62.864H112.989L103.305 31.843H109.836L116.311 56.7837L122.898 31.843H129.597L135.903 56.6711L142.321 31.843H148.626ZM197.098 31.843L178.069 77.4456H171.426L177.731 62.3573L165.514 31.843H172.664L181.391 55.4888L190.455 31.843H197.098ZM215.96 63.3707C213.033 63.3707 210.387 62.7139 208.022 61.4002C205.657 60.049 203.8 58.1724 202.448 55.7703C201.097 53.3306 200.422 50.5156 200.422 47.3253C200.422 44.1726 201.116 41.3763 202.505 38.9367C203.893 36.497 205.789 34.6204 208.191 33.3067C210.593 31.9931 213.277 31.3363 216.242 31.3363C219.207 31.3363 221.891 31.9931 224.293 33.3067C226.695 34.6204 228.59 36.497 229.979 38.9367C231.368 41.3763 232.062 44.1726 232.062 47.3253C232.062 50.4781 231.349 53.2743 229.923 55.714C228.496 58.1536 226.545 60.049 224.067 61.4002C221.628 62.7139 218.925 63.3707 215.96 63.3707ZM215.96 57.7971C217.612 57.7971 219.151 57.403 220.577 56.6148C222.041 55.8266 223.223 54.6443 224.124 53.0679C225.025 51.4915 225.475 49.5773 225.475 47.3253C225.475 45.0733 225.043 43.1779 224.18 41.6391C223.317 40.0627 222.172 38.8804 220.746 38.0922C219.32 37.304 217.781 36.9099 216.129 36.9099C214.478 36.9099 212.939 37.304 211.513 38.0922C210.124 38.8804 209.017 40.0627 208.191 41.6391C207.365 43.1779 206.952 45.0733 206.952 47.3253C206.952 50.6658 207.797 53.2556 209.486 55.0947C211.212 56.8963 213.371 57.7971 215.96 57.7971ZM267.063 31.843V62.864H260.645V59.2045C259.632 60.4807 258.299 61.4941 256.648 62.2447C255.034 62.9578 253.307 63.3144 251.468 63.3144C249.029 63.3144 246.833 62.8077 244.881 61.7943C242.967 60.7809 241.447 59.2796 240.321 57.2904C239.232 55.3011 238.688 52.899 238.688 50.084V31.843H245.05V49.1269C245.05 51.9044 245.744 54.0437 247.133 55.5451C248.522 57.0089 250.417 57.7408 252.819 57.7408C255.221 57.7408 257.117 57.0089 258.506 55.5451C259.932 54.0437 260.645 51.9044 260.645 49.1269V31.843H267.063ZM282.513 36.3469C283.451 34.7705 284.689 33.5507 286.228 32.6874C287.805 31.7867 289.663 31.3363 291.802 31.3363V37.9796H290.169C287.655 37.9796 285.74 38.6177 284.427 39.8938C283.151 41.1699 282.513 43.3844 282.513 46.5371V62.864H276.094V31.843H282.513V36.3469ZM331.299 24.6366L333.833 29.1406L326.12 32.0118L333.833 34.8831L331.243 39.4997L324.825 34.4327L326.007 42.5962H320.827L321.897 34.4327L315.479 39.6123L312.777 34.8268L320.433 31.9555L312.777 29.1969L315.366 24.5803L321.953 29.6473L320.827 21.4275H326.063L324.825 29.6473L331.299 24.6366ZM9.85243 122.937C11.2036 120.797 13.0615 119.052 15.4261 117.701C17.7907 116.35 20.3992 115.674 23.2517 115.674C26.9675 115.674 29.9326 116.781 32.1471 118.996C34.399 121.173 35.525 124.138 35.525 127.891C35.525 129.017 35.4124 130.199 35.1872 131.438C34.6242 134.591 33.4982 137.368 31.8093 139.77C30.1203 142.172 28.0372 144.03 25.56 145.344C23.1204 146.658 20.493 147.314 17.6781 147.314C14.788 147.314 12.4047 146.658 10.528 145.344C8.65137 143.993 7.39401 142.247 6.75595 140.108L5.57366 146.864H1.68899L9.06423 105.202H12.9489L9.85243 122.937ZM31.19 131.438C31.3776 130.312 31.4715 129.355 31.4715 128.567C31.4715 125.602 30.5894 123.293 28.8254 121.642C27.0989 119.953 24.8093 119.108 21.9568 119.108C19.855 119.108 17.847 119.615 15.9328 120.628C14.0186 121.642 12.3859 123.087 11.0347 124.963C9.68353 126.84 8.78273 129.017 8.33234 131.494C8.14467 132.545 8.05084 133.483 8.05084 134.309C8.05084 137.237 8.93287 139.564 10.6969 141.29C12.461 143.017 14.7505 143.88 17.5655 143.88C19.7424 143.88 21.7692 143.392 23.6458 142.416C25.56 141.403 27.1739 139.958 28.4876 138.081C29.8388 136.167 30.7396 133.953 31.19 131.438ZM72.2777 116.124L66.8729 146.864H62.9319L63.889 141.459C62.6129 143.373 60.9614 144.837 58.9347 145.851C56.9079 146.864 54.731 147.371 52.4039 147.371C49.2511 147.371 46.7176 146.526 44.8035 144.837C42.8893 143.111 41.9322 140.615 41.9322 137.349C41.9322 136.148 42.026 135.06 42.2137 134.084L45.3665 116.124H49.2511L46.1546 133.634C46.0045 134.497 45.9295 135.398 45.9295 136.336C45.9295 138.813 46.605 140.709 47.9562 142.022C49.345 143.298 51.2591 143.936 53.6988 143.936C56.5513 143.936 59.0097 143.073 61.074 141.347C63.1384 139.583 64.5271 137.012 65.2402 133.634L68.3367 116.124H72.2777ZM86.6798 147.314C83.5645 147.314 81.0311 146.601 79.0793 145.175C77.1276 143.711 76.1518 141.722 76.1518 139.207C76.1518 138.757 76.1705 138.419 76.2081 138.194H80.0364C79.8863 139.995 80.4118 141.44 81.6128 142.529C82.8139 143.617 84.5779 144.162 86.905 144.162C89.2696 144.162 91.165 143.674 92.5912 142.698C94.0175 141.684 94.7306 140.352 94.7306 138.701C94.7306 137.725 94.4304 136.899 93.8298 136.223C93.2293 135.548 92.4786 135.004 91.5778 134.591C90.7146 134.14 89.4948 133.634 87.9184 133.071C85.9667 132.357 84.3903 131.701 83.1892 131.1C82.0257 130.462 81.0123 129.599 80.149 128.51C79.3233 127.384 78.9104 125.977 78.9104 124.288C78.9104 122.599 79.3984 121.098 80.3742 119.784C81.3501 118.47 82.6825 117.457 84.3715 116.744C86.098 116.031 88.0497 115.674 90.2267 115.674C93.2668 115.674 95.744 116.425 97.6582 117.926C99.6099 119.427 100.586 121.417 100.586 123.894C100.586 124.419 100.567 124.813 100.529 125.076H96.8137C96.8512 124.926 96.87 124.682 96.87 124.344C96.87 122.693 96.2132 121.36 94.8995 120.347C93.6234 119.334 91.9719 118.827 89.9452 118.827C87.9184 118.827 86.2294 119.315 84.8782 120.291C83.5645 121.229 82.9077 122.505 82.9077 124.119C82.9077 125.207 83.2267 126.127 83.8648 126.878C84.5029 127.591 85.2911 128.173 86.2294 128.623C87.1677 129.073 88.4251 129.599 90.0015 130.199C91.8781 130.912 93.3794 131.569 94.5054 132.17C95.6689 132.77 96.6448 133.596 97.433 134.647C98.2212 135.698 98.6153 137.012 98.6153 138.588C98.6153 141.253 97.5081 143.373 95.2936 144.95C93.0792 146.526 90.2079 147.314 86.6798 147.314ZM114.141 110.326C113.428 110.326 112.846 110.119 112.395 109.706C111.945 109.256 111.72 108.674 111.72 107.961C111.72 106.985 112.058 106.178 112.733 105.54C113.409 104.865 114.216 104.527 115.154 104.527C115.867 104.527 116.43 104.733 116.843 105.146C117.294 105.559 117.519 106.103 117.519 106.779C117.519 107.755 117.181 108.599 116.505 109.312C115.83 109.988 115.042 110.326 114.141 110.326ZM115.042 116.124L109.637 146.864H105.696L111.101 116.124H115.042ZM139.111 115.561C142.263 115.561 144.778 116.425 146.655 118.151C148.569 119.84 149.526 122.317 149.526 125.583C149.526 126.784 149.432 127.872 149.244 128.848L146.035 146.864H142.151L145.247 129.299C145.397 128.435 145.472 127.516 145.472 126.54C145.472 124.063 144.797 122.186 143.446 120.91C142.094 119.634 140.199 118.996 137.759 118.996C134.794 118.996 132.261 119.934 130.159 121.811C128.057 123.687 126.687 126.446 126.049 130.087V129.918L123.065 146.864H119.124L124.529 116.124H128.47L127.513 121.417C128.826 119.54 130.497 118.095 132.523 117.082C134.55 116.068 136.746 115.561 139.111 115.561ZM174.118 115.674C176.708 115.674 178.923 116.181 180.762 117.194C182.601 118.17 183.989 119.521 184.928 121.248C185.904 122.974 186.392 124.945 186.392 127.159C186.392 128.173 186.317 129.073 186.166 129.862C185.941 130.988 185.716 132.001 185.491 132.902H159.987C159.874 133.615 159.818 134.29 159.818 134.929C159.818 137.819 160.681 140.052 162.408 141.628C164.172 143.205 166.405 143.993 169.108 143.993C171.697 143.993 173.968 143.373 175.92 142.135C177.872 140.896 179.298 139.226 180.199 137.124H184.421C183.145 140.127 181.099 142.585 178.284 144.499C175.507 146.376 172.26 147.314 168.545 147.314C164.716 147.314 161.639 146.226 159.312 144.049C157.022 141.835 155.877 138.832 155.877 135.041C155.877 133.915 155.99 132.733 156.215 131.494C156.778 128.304 157.904 125.508 159.593 123.106C161.32 120.703 163.44 118.864 165.955 117.588C168.47 116.312 171.191 115.674 174.118 115.674ZM182.113 129.974C182.3 128.923 182.394 128.041 182.394 127.328C182.394 124.663 181.55 122.618 179.861 121.191C178.172 119.765 176.014 119.052 173.386 119.052C171.472 119.052 169.633 119.465 167.869 120.291C166.105 121.116 164.566 122.355 163.252 124.006C161.939 125.658 161.038 127.647 160.55 129.974H182.113ZM201.146 147.314C198.031 147.314 195.497 146.601 193.546 145.175C191.594 143.711 190.618 141.722 190.618 139.207C190.618 138.757 190.637 138.419 190.674 138.194H194.503C194.353 139.995 194.878 141.44 196.079 142.529C197.28 143.617 199.044 144.162 201.371 144.162C203.736 144.162 205.631 143.674 207.057 142.698C208.484 141.684 209.197 140.352 209.197 138.701C209.197 137.725 208.897 136.899 208.296 136.223C207.696 135.548 206.945 135.004 206.044 134.591C205.181 134.14 203.961 133.634 202.385 133.071C200.433 132.357 198.857 131.701 197.655 131.1C196.492 130.462 195.479 129.599 194.615 128.51C193.79 127.384 193.377 125.977 193.377 124.288C193.377 122.599 193.865 121.098 194.84 119.784C195.816 118.47 197.149 117.457 198.838 116.744C200.564 116.031 202.516 115.674 204.693 115.674C207.733 115.674 210.21 116.425 212.124 117.926C214.076 119.427 215.052 121.417 215.052 123.894C215.052 124.419 215.033 124.813 214.996 125.076H211.28C211.317 124.926 211.336 124.682 211.336 124.344C211.336 122.693 210.679 121.36 209.366 120.347C208.09 119.334 206.438 118.827 204.411 118.827C202.385 118.827 200.696 119.315 199.344 120.291C198.031 121.229 197.374 122.505 197.374 124.119C197.374 125.207 197.693 126.127 198.331 126.878C198.969 127.591 199.757 128.173 200.696 128.623C201.634 129.073 202.891 129.599 204.468 130.199C206.344 130.912 207.846 131.569 208.972 132.17C210.135 132.77 211.111 133.596 211.899 134.647C212.687 135.698 213.082 137.012 213.082 138.588C213.082 141.253 211.974 143.373 209.76 144.95C207.545 146.526 204.674 147.314 201.146 147.314ZM230.409 147.314C227.293 147.314 224.76 146.601 222.808 145.175C220.856 143.711 219.881 141.722 219.881 139.207C219.881 138.757 219.899 138.419 219.937 138.194H223.765C223.615 139.995 224.141 141.44 225.342 142.529C226.543 143.617 228.307 144.162 230.634 144.162C232.998 144.162 234.894 143.674 236.32 142.698C237.746 141.684 238.459 140.352 238.459 138.701C238.459 137.725 238.159 136.899 237.559 136.223C236.958 135.548 236.207 135.004 235.307 134.591C234.443 134.14 233.224 133.634 231.647 133.071C229.695 132.357 228.119 131.701 226.918 131.1C225.755 130.462 224.741 129.599 223.878 128.51C223.052 127.384 222.639 125.977 222.639 124.288C222.639 122.599 223.127 121.098 224.103 119.784C225.079 118.47 226.411 117.457 228.1 116.744C229.827 116.031 231.779 115.674 233.955 115.674C236.996 115.674 239.473 116.425 241.387 117.926C243.339 119.427 244.315 121.417 244.315 123.894C244.315 124.419 244.296 124.813 244.258 125.076H240.543C240.58 124.926 240.599 124.682 240.599 124.344C240.599 122.693 239.942 121.36 238.628 120.347C237.352 119.334 235.701 118.827 233.674 118.827C231.647 118.827 229.958 119.315 228.607 120.291C227.293 121.229 226.637 122.505 226.637 124.119C226.637 125.207 226.956 126.127 227.594 126.878C228.232 127.591 229.02 128.173 229.958 128.623C230.897 129.073 232.154 129.599 233.73 130.199C235.607 130.912 237.108 131.569 238.234 132.17C239.398 132.77 240.374 133.596 241.162 134.647C241.95 135.698 242.344 137.012 242.344 138.588C242.344 141.253 241.237 143.373 239.022 144.95C236.808 146.526 233.937 147.314 230.409 147.314ZM265.006 131.213C265.006 128.097 265.645 125.339 266.921 122.937C268.234 120.535 269.998 118.677 272.213 117.363C274.465 116.012 276.942 115.336 279.644 115.336C282.084 115.336 284.205 115.824 286.006 116.8C287.845 117.738 289.309 118.921 290.398 120.347V115.843H296.872V146.864H290.398V142.247C289.309 143.711 287.827 144.931 285.95 145.907C284.073 146.883 281.934 147.371 279.532 147.371C276.867 147.371 274.427 146.695 272.213 145.344C269.998 143.955 268.234 142.041 266.921 139.601C265.645 137.124 265.006 134.328 265.006 131.213ZM290.398 131.325C290.398 129.186 289.947 127.328 289.046 125.752C288.183 124.175 287.038 122.974 285.612 122.149C284.186 121.323 282.647 120.91 280.996 120.91C279.344 120.91 277.805 121.323 276.379 122.149C274.953 122.937 273.789 124.119 272.888 125.695C272.025 127.234 271.594 129.073 271.594 131.213C271.594 133.352 272.025 135.229 272.888 136.843C273.789 138.457 274.953 139.695 276.379 140.558C277.843 141.384 279.382 141.797 280.996 141.797C282.647 141.797 284.186 141.384 285.612 140.558C287.038 139.733 288.183 138.532 289.046 136.955C289.947 135.341 290.398 133.465 290.398 131.325ZM321.516 115.336C323.956 115.336 326.133 115.843 328.047 116.856C329.999 117.87 331.519 119.371 332.607 121.36C333.696 123.35 334.24 125.752 334.24 128.567V146.864H327.878V129.524C327.878 126.746 327.184 124.626 325.795 123.162C324.406 121.661 322.511 120.91 320.109 120.91C317.707 120.91 315.792 121.661 314.366 123.162C312.977 124.626 312.283 126.746 312.283 129.524V146.864H305.865V115.843H312.283V119.39C313.334 118.114 314.666 117.119 316.28 116.406C317.932 115.693 319.677 115.336 321.516 115.336ZM340.85 131.213C340.85 128.097 341.488 125.339 342.765 122.937C344.078 120.535 345.842 118.677 348.057 117.363C350.309 116.012 352.805 115.336 355.545 115.336C357.571 115.336 359.561 115.787 361.512 116.687C363.502 117.551 365.078 118.714 366.241 120.178V105.202H372.716V146.864H366.241V142.191C365.191 143.692 363.727 144.931 361.85 145.907C360.011 146.883 357.89 147.371 355.488 147.371C352.786 147.371 350.309 146.695 348.057 145.344C345.842 143.955 344.078 142.041 342.765 139.601C341.488 137.124 340.85 134.328 340.85 131.213ZM366.241 131.325C366.241 129.186 365.791 127.328 364.89 125.752C364.027 124.175 362.882 122.974 361.456 122.149C360.03 121.323 358.491 120.91 356.839 120.91C355.188 120.91 353.649 121.323 352.223 122.149C350.797 122.937 349.633 124.119 348.732 125.695C347.869 127.234 347.437 129.073 347.437 131.213C347.437 133.352 347.869 135.229 348.732 136.843C349.633 138.457 350.797 139.695 352.223 140.558C353.687 141.384 355.225 141.797 356.839 141.797C358.491 141.797 360.03 141.384 361.456 140.558C362.882 139.733 364.027 138.532 364.89 136.955C365.791 135.341 366.241 133.465 366.241 131.325ZM9.85243 206.937C11.2036 204.797 13.0615 203.052 15.4261 201.701C17.7907 200.35 20.3992 199.674 23.2517 199.674C26.9675 199.674 29.9326 200.781 32.1471 202.996C34.399 205.173 35.525 208.138 35.525 211.891C35.525 213.017 35.4124 214.199 35.1872 215.438C34.6242 218.591 33.4982 221.368 31.8093 223.77C30.1203 226.172 28.0372 228.03 25.56 229.344C23.1204 230.658 20.493 231.314 17.6781 231.314C14.788 231.314 12.4047 230.658 10.528 229.344C8.65137 227.993 7.39401 226.247 6.75595 224.108L5.57366 230.864H1.68899L9.06423 189.202H12.9489L9.85243 206.937ZM31.19 215.438C31.3776 214.312 31.4715 213.355 31.4715 212.567C31.4715 209.602 30.5894 207.293 28.8254 205.642C27.0989 203.953 24.8093 203.108 21.9568 203.108C19.855 203.108 17.847 203.615 15.9328 204.628C14.0186 205.642 12.3859 207.087 11.0347 208.963C9.68353 210.84 8.78273 213.017 8.33234 215.494C8.14467 216.545 8.05084 217.483 8.05084 218.309C8.05084 221.237 8.93287 223.564 10.6969 225.29C12.461 227.017 14.7505 227.88 17.5655 227.88C19.7424 227.88 21.7692 227.392 23.6458 226.416C25.56 225.403 27.1739 223.958 28.4876 222.081C29.8388 220.167 30.7396 217.953 31.19 215.438ZM48.5192 206.261C49.7578 204.122 51.3717 202.47 53.361 201.307C55.3502 200.143 57.6585 199.561 60.2858 199.561L59.5539 203.671H58.428C55.7256 203.671 53.3985 204.366 51.4468 205.754C49.4951 207.143 48.1439 209.433 47.3932 212.623L44.1842 230.864H40.2432L45.648 200.124H49.5889L48.5192 206.261ZM62.1046 215.438C62.6676 212.285 63.7936 209.526 65.4826 207.162C67.1715 204.76 69.2359 202.921 71.6755 201.645C74.1527 200.331 76.7988 199.674 79.6137 199.674C82.5413 199.674 84.9434 200.35 86.8201 201.701C88.6967 203.052 89.9166 204.779 90.4796 206.88L91.6619 200.124H95.6028L90.1981 230.864H86.2571L87.4394 224.052C86.1633 226.154 84.3241 227.899 81.922 229.288C79.5574 230.639 76.9114 231.314 73.9838 231.314C71.5441 231.314 69.4048 230.808 67.5656 229.794C65.7265 228.781 64.3003 227.355 63.2869 225.516C62.2735 223.639 61.7668 221.443 61.7668 218.929C61.7668 217.84 61.8794 216.677 62.1046 215.438ZM88.9595 215.494C89.1471 214.443 89.241 213.505 89.241 212.679C89.241 209.752 88.3589 207.425 86.5949 205.698C84.8308 203.972 82.5413 203.108 79.7263 203.108C77.5494 203.108 75.5039 203.596 73.5897 204.572C71.713 205.548 70.1179 206.974 68.8042 208.851C67.4906 210.69 66.6085 212.886 66.1582 215.438C65.9705 216.564 65.8767 217.521 65.8767 218.309C65.8767 221.274 66.7399 223.62 68.4664 225.347C70.2305 227.036 72.52 227.88 75.335 227.88C77.4368 227.88 79.4448 227.373 81.359 226.36C83.3108 225.347 84.9434 223.902 86.2571 222.025C87.6083 220.148 88.5091 217.971 88.9595 215.494ZM119.744 199.561C122.897 199.561 125.412 200.425 127.288 202.151C129.203 203.84 130.16 206.317 130.16 209.583C130.16 210.784 130.066 211.872 129.878 212.848L126.669 230.864H122.785L125.881 213.299C126.031 212.435 126.106 211.516 126.106 210.54C126.106 208.063 125.431 206.186 124.079 204.91C122.728 203.634 120.833 202.996 118.393 202.996C115.428 202.996 112.895 203.934 110.793 205.811C108.691 207.687 107.321 210.446 106.683 214.087V213.918L103.699 230.864H99.758L105.163 200.124H109.104L108.147 205.417C109.46 203.54 111.131 202.095 113.157 201.082C115.184 200.068 117.38 199.561 119.744 199.561ZM136.849 215.438C137.412 212.285 138.538 209.526 140.227 207.162C141.916 204.76 143.999 202.921 146.476 201.645C148.953 200.331 151.599 199.674 154.414 199.674C157.117 199.674 159.425 200.331 161.339 201.645C163.291 202.958 164.605 204.666 165.28 206.768L168.377 189.202H172.318L164.942 230.864H161.001L162.24 223.995C160.889 226.135 159.031 227.899 156.666 229.288C154.302 230.639 151.674 231.314 148.784 231.314C145.069 231.314 142.085 230.207 139.833 227.993C137.618 225.741 136.511 222.719 136.511 218.929C136.511 217.84 136.624 216.677 136.849 215.438ZM163.704 215.494C163.891 214.443 163.985 213.505 163.985 212.679C163.985 209.752 163.103 207.425 161.339 205.698C159.575 203.972 157.286 203.108 154.471 203.108C152.294 203.108 150.248 203.596 148.334 204.572C146.457 205.548 144.862 206.974 143.549 208.851C142.235 210.69 141.353 212.886 140.902 215.438C140.715 216.564 140.621 217.521 140.621 218.309C140.621 221.274 141.484 223.62 143.211 225.347C144.975 227.036 147.264 227.88 150.079 227.88C152.181 227.88 154.189 227.373 156.103 226.36C158.055 225.347 159.688 223.902 161.001 222.025C162.353 220.148 163.253 217.971 163.704 215.494ZM233.885 199.843L224.258 230.864H217.502L211.253 207.95L205.003 230.864H198.247L188.564 199.843H195.095L201.569 224.784L208.156 199.843H214.856L221.161 224.671L227.58 199.843H233.885ZM242.51 195.733C241.346 195.733 240.371 195.339 239.582 194.551C238.794 193.763 238.4 192.787 238.4 191.623C238.4 190.46 238.794 189.484 239.582 188.696C240.371 187.907 241.346 187.513 242.51 187.513C243.636 187.513 244.593 187.907 245.381 188.696C246.169 189.484 246.564 190.46 246.564 191.623C246.564 192.787 246.169 193.763 245.381 194.551C244.593 195.339 243.636 195.733 242.51 195.733ZM245.663 199.843V230.864H239.245V199.843H245.663ZM262.14 205.079V222.25C262.14 223.414 262.403 224.258 262.928 224.784C263.491 225.272 264.43 225.516 265.743 225.516H269.684V230.864H264.617C261.727 230.864 259.513 230.188 257.974 228.837C256.435 227.486 255.666 225.29 255.666 222.25V205.079H252.006V199.843H255.666V192.13H262.14V199.843H269.684V205.079H262.14ZM292.208 199.336C294.573 199.336 296.674 199.843 298.513 200.856C300.39 201.87 301.854 203.371 302.905 205.36C303.993 207.35 304.538 209.752 304.538 212.567V230.864H298.176V213.524C298.176 210.746 297.481 208.626 296.093 207.162C294.704 205.661 292.808 204.91 290.406 204.91C288.004 204.91 286.09 205.661 284.664 207.162C283.275 208.626 282.581 210.746 282.581 213.524V230.864H276.163V189.202H282.581V203.446C283.669 202.132 285.039 201.119 286.691 200.406C288.38 199.693 290.219 199.336 292.208 199.336ZM17.6781 315.371C14.7505 315.371 12.1044 314.714 9.73983 313.4C7.37524 312.049 5.51736 310.172 4.16617 307.77C2.81498 305.331 2.13938 302.516 2.13938 299.325C2.13938 296.173 2.83375 293.376 4.22247 290.937C5.61119 288.497 7.50661 286.62 9.90872 285.307C12.3108 283.993 14.9945 283.336 17.9596 283.336C20.9247 283.336 23.6083 283.993 26.0104 285.307C28.4125 286.62 30.3079 288.497 31.6967 290.937C33.0854 293.376 33.7797 296.173 33.7797 299.325C33.7797 302.478 33.0666 305.274 31.6404 307.714C30.2141 310.154 28.2624 312.049 25.7852 313.4C23.3456 314.714 20.6432 315.371 17.6781 315.371ZM17.6781 309.797C19.3295 309.797 20.8684 309.403 22.2946 308.615C23.7584 307.827 24.9407 306.644 25.8415 305.068C26.7423 303.492 27.1927 301.577 27.1927 299.325C27.1927 297.073 26.7611 295.178 25.8978 293.639C25.0345 292.063 23.8898 290.88 22.4635 290.092C21.0373 289.304 19.4984 288.91 17.847 288.91C16.1955 288.91 14.6567 289.304 13.2304 290.092C11.8417 290.88 10.7345 292.063 9.90872 293.639C9.083 295.178 8.67013 297.073 8.67013 299.325C8.67013 302.666 9.51463 305.256 11.2036 307.095C12.9301 308.896 15.0883 309.797 17.6781 309.797ZM68.7809 283.843V314.864H62.3628V311.205C61.3494 312.481 60.017 313.494 58.3655 314.245C56.7516 314.958 55.0251 315.314 53.1859 315.314C50.7463 315.314 48.5506 314.808 46.5989 313.794C44.6847 312.781 43.1646 311.28 42.0386 309.29C40.9502 307.301 40.4059 304.899 40.4059 302.084V283.843H46.7678V301.127C46.7678 303.904 47.4621 306.044 48.8509 307.545C50.2396 309.009 52.135 309.741 54.5371 309.741C56.9392 309.741 58.8347 309.009 60.2234 307.545C61.6496 306.044 62.3628 303.904 62.3628 301.127V283.843H68.7809ZM84.2303 288.347C85.1686 286.771 86.4072 285.551 87.9461 284.687C89.5225 283.787 91.3804 283.336 93.5197 283.336V289.98H91.8871C89.3723 289.98 87.4582 290.618 86.1445 291.894C84.8684 293.17 84.2303 295.384 84.2303 298.537V314.864H77.8122V283.843H84.2303V288.347ZM126.43 315.371C123.99 315.371 121.795 314.939 119.843 314.076C117.929 313.175 116.409 311.974 115.283 310.473C114.157 308.934 113.556 307.226 113.481 305.349H120.124C120.237 306.663 120.856 307.77 121.982 308.671C123.146 309.534 124.591 309.966 126.317 309.966C128.119 309.966 129.508 309.628 130.483 308.953C131.497 308.239 132.004 307.339 132.004 306.25C132.004 305.087 131.441 304.223 130.315 303.66C129.226 303.097 127.481 302.478 125.079 301.803C122.752 301.164 120.856 300.545 119.392 299.945C117.929 299.344 116.653 298.425 115.564 297.186C114.513 295.947 113.988 294.315 113.988 292.288C113.988 290.636 114.476 289.135 115.451 287.784C116.427 286.395 117.816 285.307 119.618 284.519C121.457 283.73 123.559 283.336 125.923 283.336C129.451 283.336 132.285 284.237 134.424 286.039C136.601 287.803 137.765 290.224 137.915 293.301H131.497C131.384 291.913 130.821 290.805 129.808 289.98C128.794 289.154 127.425 288.741 125.698 288.741C124.009 288.741 122.714 289.06 121.813 289.698C120.913 290.336 120.462 291.181 120.462 292.232C120.462 293.057 120.762 293.752 121.363 294.315C121.963 294.878 122.695 295.328 123.559 295.666C124.422 295.966 125.698 296.36 127.387 296.848C129.639 297.449 131.478 298.068 132.904 298.706C134.368 299.307 135.626 300.207 136.676 301.408C137.727 302.609 138.272 304.205 138.309 306.194C138.309 307.958 137.821 309.534 136.845 310.923C135.869 312.312 134.481 313.4 132.679 314.188C130.915 314.977 128.832 315.371 126.43 315.371ZM174.238 298.593C174.238 299.757 174.163 300.808 174.013 301.746H150.311C150.499 304.223 151.418 306.213 153.07 307.714C154.721 309.215 156.748 309.966 159.15 309.966C162.603 309.966 165.043 308.521 166.469 305.631H173.394C172.456 308.483 170.748 310.829 168.271 312.668C165.831 314.47 162.791 315.371 159.15 315.371C156.185 315.371 153.52 314.714 151.156 313.4C148.828 312.049 146.989 310.172 145.638 307.77C144.325 305.331 143.668 302.516 143.668 299.325C143.668 296.135 144.306 293.339 145.582 290.937C146.896 288.497 148.716 286.62 151.043 285.307C153.408 283.993 156.11 283.336 159.15 283.336C162.078 283.336 164.686 283.974 166.976 285.25C169.265 286.527 171.048 288.328 172.324 290.655C173.6 292.945 174.238 295.591 174.238 298.593ZM167.539 296.567C167.501 294.202 166.657 292.307 165.005 290.88C163.354 289.454 161.308 288.741 158.869 288.741C156.654 288.741 154.759 289.454 153.182 290.88C151.606 292.269 150.668 294.165 150.367 296.567H167.539ZM187.536 288.347C188.474 286.771 189.713 285.551 191.251 284.687C192.828 283.787 194.686 283.336 196.825 283.336V289.98H195.192C192.678 289.98 190.763 290.618 189.45 291.894C188.174 293.17 187.536 295.384 187.536 298.537V314.864H181.117V283.843H187.536V288.347ZM215.279 309.121L224.062 283.843H230.874L219.052 314.864H211.395L199.628 283.843H206.497L215.279 309.121ZM239.554 279.733C238.391 279.733 237.415 279.339 236.627 278.551C235.838 277.763 235.444 276.787 235.444 275.623C235.444 274.46 235.838 273.484 236.627 272.696C237.415 271.907 238.391 271.513 239.554 271.513C240.68 271.513 241.637 271.907 242.425 272.696C243.214 273.484 243.608 274.46 243.608 275.623C243.608 276.787 243.214 277.763 242.425 278.551C241.637 279.339 240.68 279.733 239.554 279.733ZM242.707 283.843V314.864H236.289V283.843H242.707ZM249.557 299.325C249.557 296.135 250.195 293.339 251.471 290.937C252.785 288.497 254.586 286.62 256.876 285.307C259.166 283.993 261.793 283.336 264.758 283.336C268.511 283.336 271.608 284.237 274.047 286.039C276.525 287.803 278.195 290.336 279.058 293.639H272.133C271.57 292.1 270.669 290.899 269.431 290.036C268.192 289.173 266.635 288.741 264.758 288.741C262.131 288.741 260.029 289.679 258.452 291.556C256.914 293.395 256.144 295.985 256.144 299.325C256.144 302.666 256.914 305.274 258.452 307.151C260.029 309.028 262.131 309.966 264.758 309.966C268.474 309.966 270.932 308.333 272.133 305.068H279.058C278.157 308.221 276.468 310.735 273.991 312.612C271.514 314.451 268.436 315.371 264.758 315.371C261.793 315.371 259.166 314.714 256.876 313.4C254.586 312.049 252.785 310.172 251.471 307.77C250.195 305.331 249.557 302.516 249.557 299.325ZM314.448 298.593C314.448 299.757 314.373 300.808 314.223 301.746H290.521C290.709 304.223 291.628 306.213 293.28 307.714C294.931 309.215 296.958 309.966 299.36 309.966C302.813 309.966 305.253 308.521 306.679 305.631H313.604C312.666 308.483 310.958 310.829 308.481 312.668C306.041 314.47 303.001 315.371 299.36 315.371C296.395 315.371 293.73 314.714 291.366 313.4C289.039 312.049 287.199 310.172 285.848 307.77C284.535 305.331 283.878 302.516 283.878 299.325C283.878 296.135 284.516 293.339 285.792 290.937C287.106 288.497 288.926 286.62 291.253 285.307C293.618 283.993 296.32 283.336 299.36 283.336C302.288 283.336 304.896 283.974 307.186 285.25C309.475 286.527 311.258 288.328 312.534 290.655C313.81 292.945 314.448 295.591 314.448 298.593ZM307.749 296.567C307.711 294.202 306.867 292.307 305.215 290.88C303.564 289.454 301.518 288.741 299.079 288.741C296.864 288.741 294.969 289.454 293.392 290.88C291.816 292.269 290.878 294.165 290.577 296.567H307.749ZM354.362 276.637L356.896 281.141L349.183 284.012L356.896 286.883L354.306 291.5L347.888 286.433L349.07 294.596H343.891L344.96 286.433L338.542 291.612L335.84 286.827L343.496 283.956L335.84 281.197L338.429 276.58L345.017 281.647L343.891 273.428H349.126L347.888 281.647L354.362 276.637Z" fill="black"/>
</svg>
