<svg width="128" height="49" viewBox="0 0 128 49" fill="none" xmlns="http://www.w3.org/2000/svg">
<path d="M74.2151 35.1006L97.3131 2.41201L120.411 35.1006H74.2151Z" stroke="#5199CC" stroke-width="2.78384"/>
<path d="M86.4351 28.8672L96.9504 13.9231L107.466 28.8672H86.4351Z" stroke="#5199CC" stroke-width="1.81555"/>
<path d="M113.645 32.8098V12.0555H120.312V32.8098H113.645Z" fill="white"/>
<path d="M16.2293 32.8098V24.9364H8.89899V32.8098H2.23229V12.0555H8.89899V19.6272H16.2293V12.0555H22.896V32.8098H16.2293ZM27.6625 12.0555H45.6113V17.0329H34.3292V19.8987H43.9824V24.6649H34.3292V27.8324H45.8225V32.8098H27.6625V12.0555ZM49.7344 12.0555H56.4011V27.5005H67.0497V32.8098H49.7344V12.0555ZM81.8007 12.0555C83.0878 12.0555 84.2341 12.3572 85.2396 12.9605C86.2452 13.5437 87.0295 14.3582 87.5926 15.4039C88.1557 16.4296 88.4372 17.5859 88.4372 18.873V19.2652C88.4372 20.5523 88.1557 21.7187 87.5926 22.7645C87.0295 23.8102 86.2452 24.6348 85.2396 25.2381C84.2341 25.8213 83.0878 26.1129 81.8007 26.1129H76.8233V32.8098H70.1566V12.0555H81.8007ZM76.8233 21.2562H79.5684C80.2723 21.2562 80.7952 21.0752 81.137 20.7132C81.499 20.3512 81.68 19.8585 81.68 19.235V18.9937C81.68 18.3502 81.499 17.8574 81.137 17.5156C80.7952 17.1536 80.2723 16.9726 79.5684 16.9726H76.8233V21.2562Z" fill="white"/>
</svg>
