<svg width="371" height="45" viewBox="0 0 371 45" fill="none" xmlns="http://www.w3.org/2000/svg">
<path d="M0.983398 43.5134H370.017" stroke="black" stroke-width="0.5"/>
<path d="M8.092 20.126C6.928 20.126 5.872 19.856 4.924 19.316C3.976 18.764 3.226 18.002 2.674 17.03C2.134 16.046 1.864 14.936 1.864 13.7C1.864 12.464 2.134 11.36 2.674 10.388C3.226 9.404 3.976 8.642 4.924 8.102C5.872 7.55 6.928 7.274 8.092 7.274C9.268 7.274 10.33 7.55 11.278 8.102C12.226 8.642 12.97 9.404 13.51 10.388C14.05 11.36 14.32 12.464 14.32 13.7C14.32 14.936 14.05 16.046 13.51 17.03C12.97 18.002 12.226 18.764 11.278 19.316C10.33 19.856 9.268 20.126 8.092 20.126ZM8.092 19.028C9.028 19.028 9.868 18.812 10.612 18.38C11.356 17.948 11.944 17.33 12.376 16.526C12.808 15.71 13.024 14.768 13.024 13.7C13.024 12.632 12.808 11.696 12.376 10.892C11.944 10.088 11.356 9.47 10.612 9.038C9.868 8.606 9.028 8.39 8.092 8.39C7.156 8.39 6.316 8.606 5.572 9.038C4.828 9.47 4.24 10.088 3.808 10.892C3.376 11.696 3.16 12.632 3.16 13.7C3.16 14.768 3.376 15.71 3.808 16.526C4.24 17.33 4.828 17.948 5.572 18.38C6.316 18.812 7.156 19.028 8.092 19.028ZM18.0115 7.418V15.338C18.0115 16.586 18.3055 17.51 18.8935 18.11C19.4935 18.71 20.3095 19.01 21.3415 19.01C22.3735 19.01 23.1775 18.716 23.7535 18.128C24.3415 17.528 24.6355 16.598 24.6355 15.338V7.418H25.8955V15.32C25.8955 16.916 25.4695 18.116 24.6175 18.92C23.7775 19.724 22.6795 20.126 21.3235 20.126C19.9675 20.126 18.8635 19.724 18.0115 18.92C17.1715 18.116 16.7515 16.916 16.7515 15.32V7.418H18.0115ZM35.5819 20L32.4679 14.744H30.1459V20H28.8859V7.418H32.6659C34.0699 7.418 35.1319 7.754 35.8519 8.426C36.5839 9.098 36.9499 9.98 36.9499 11.072C36.9499 11.984 36.6859 12.764 36.1579 13.412C35.6419 14.048 34.8739 14.462 33.8539 14.654L37.0939 20H35.5819ZM30.1459 13.718H32.6839C33.6679 13.718 34.4059 13.478 34.8979 12.998C35.4019 12.518 35.6539 11.876 35.6539 11.072C35.6539 10.244 35.4139 9.608 34.9339 9.164C34.4539 8.708 33.6979 8.48 32.6659 8.48H30.1459V13.718ZM48.5658 20.126C47.7378 20.126 47.0058 19.982 46.3698 19.694C45.7458 19.406 45.2538 19.004 44.8938 18.488C44.5338 17.972 44.3418 17.396 44.3178 16.76H45.6498C45.7098 17.372 45.9798 17.912 46.4598 18.38C46.9398 18.836 47.6418 19.064 48.5658 19.064C49.4178 19.064 50.0898 18.848 50.5818 18.416C51.0858 17.972 51.3378 17.414 51.3378 16.742C51.3378 16.202 51.1998 15.77 50.9238 15.446C50.6478 15.11 50.3058 14.864 49.8978 14.708C49.4898 14.54 48.9258 14.36 48.2058 14.168C47.3658 13.94 46.6998 13.718 46.2078 13.502C45.7158 13.286 45.2958 12.95 44.9478 12.494C44.5998 12.038 44.4258 11.42 44.4258 10.64C44.4258 9.992 44.5938 9.416 44.9298 8.912C45.2658 8.396 45.7398 7.994 46.3518 7.706C46.9638 7.418 47.6658 7.274 48.4578 7.274C49.6218 7.274 50.5578 7.562 51.2658 8.138C51.9858 8.702 52.3998 9.434 52.5078 10.334H51.1398C51.0558 9.818 50.7738 9.362 50.2938 8.966C49.8138 8.558 49.1658 8.354 48.3498 8.354C47.5938 8.354 46.9638 8.558 46.4598 8.966C45.9558 9.362 45.7038 9.908 45.7038 10.604C45.7038 11.132 45.8418 11.558 46.1178 11.882C46.3938 12.206 46.7358 12.452 47.1438 12.62C47.5638 12.788 48.1278 12.968 48.8358 13.16C49.6518 13.388 50.3118 13.616 50.8158 13.844C51.3198 14.06 51.7458 14.396 52.0938 14.852C52.4418 15.308 52.6158 15.92 52.6158 16.688C52.6158 17.276 52.4598 17.834 52.1478 18.362C51.8358 18.89 51.3738 19.316 50.7618 19.64C50.1498 19.964 49.4178 20.126 48.5658 20.126ZM56.4906 8.444V13.142H61.2606V14.186H56.4906V18.956H61.8006V20H55.2306V7.4H61.8006V8.444H56.4906ZM71.1594 20L68.0454 14.744H65.7234V20H64.4634V7.418H68.2434C69.6474 7.418 70.7094 7.754 71.4294 8.426C72.1614 9.098 72.5274 9.98 72.5274 11.072C72.5274 11.984 72.2634 12.764 71.7354 13.412C71.2194 14.048 70.4514 14.462 69.4314 14.654L72.6714 20H71.1594ZM65.7234 13.718H68.2614C69.2454 13.718 69.9834 13.478 70.4754 12.998C70.9794 12.518 71.2314 11.876 71.2314 11.072C71.2314 10.244 70.9914 9.608 70.5114 9.164C70.0314 8.708 69.2754 8.48 68.2434 8.48H65.7234V13.718ZM85.1798 7.418L80.4098 20H78.9698L74.1998 7.418H75.5678L79.6898 18.632L83.8478 7.418H85.1798ZM88.513 7.418V20H87.253V7.418H88.513ZM90.9703 13.7C90.9703 12.464 91.2403 11.36 91.7803 10.388C92.3203 9.404 93.0583 8.642 93.9943 8.102C94.9303 7.55 95.9743 7.274 97.1263 7.274C98.5303 7.274 99.7303 7.61 100.726 8.282C101.734 8.942 102.466 9.878 102.922 11.09H101.446C101.086 10.238 100.534 9.572 99.7903 9.092C99.0583 8.612 98.1703 8.372 97.1263 8.372C96.2023 8.372 95.3683 8.588 94.6243 9.02C93.8923 9.452 93.3163 10.076 92.8963 10.892C92.4763 11.696 92.2663 12.632 92.2663 13.7C92.2663 14.768 92.4763 15.704 92.8963 16.508C93.3163 17.312 93.8923 17.93 94.6243 18.362C95.3683 18.794 96.2023 19.01 97.1263 19.01C98.1703 19.01 99.0583 18.776 99.7903 18.308C100.534 17.828 101.086 17.168 101.446 16.328H102.922C102.466 17.528 101.734 18.458 100.726 19.118C99.7183 19.778 98.5183 20.108 97.1263 20.108C95.9743 20.108 94.9303 19.838 93.9943 19.298C93.0583 18.746 92.3203 17.984 91.7803 17.012C91.2403 16.04 90.9703 14.936 90.9703 13.7ZM106.873 8.444V13.142H111.643V14.186H106.873V18.956H112.183V20H105.613V7.4H112.183V8.444H106.873Z" fill="black"/>
<path d="M345.534 19.4602L359.855 8.70595M359.855 8.70595L358.425 17.5498M359.855 8.70595L351.421 7.67958" stroke="black" stroke-width="0.605892" stroke-linecap="round" stroke-linejoin="round"/>
</svg>
