<svg width="309" height="277" viewBox="0 0 309 277" fill="none" xmlns="http://www.w3.org/2000/svg">
<path d="M0 37.824H121.191V64.0274H0V37.824Z" fill="#F5CF83"/>
<path d="M88.4365 244.995H258.759V271.198H88.4365V244.995Z" fill="#F5CF83"/>
<path d="M26.6466 29.0439C25.8167 27.4457 24.6642 26.2471 23.189 25.448C21.7137 24.6181 20.008 24.2032 18.0717 24.2032C15.9511 24.2032 14.0609 24.6796 12.4013 25.6324C10.7416 26.5851 9.4354 27.9374 8.48264 29.6893C7.56061 31.4411 7.0996 33.4696 7.0996 35.7747C7.0996 38.0797 7.56061 40.1235 8.48264 41.9061C9.4354 43.658 10.7416 45.0103 12.4013 45.963C14.0609 46.9158 15.9511 47.3922 18.0717 47.3922C20.93 47.3922 23.2504 46.5931 25.033 44.9949C26.8156 43.3967 27.9067 41.23 28.3062 38.4946H16.2738V34.2994H33.9306V38.4024C33.5925 40.8919 32.7012 43.1816 31.2567 45.2715C29.8429 47.3615 27.9835 49.0365 25.6784 50.2966C23.4041 51.5259 20.8685 52.1406 18.0717 52.1406C15.0598 52.1406 12.309 51.4491 9.81958 50.0661C7.33011 48.6523 5.34775 46.7007 3.87251 44.2112C2.428 41.7217 1.70575 38.9095 1.70575 35.7747C1.70575 32.6398 2.428 29.8276 3.87251 27.3381C5.34775 24.8486 7.33011 22.9124 9.81958 21.5294C12.3398 20.1156 15.0905 19.4087 18.0717 19.4087C21.4832 19.4087 24.5105 20.2539 27.1537 21.9443C29.8275 23.6039 31.7638 25.9704 32.9624 29.0439H26.6466ZM44.8306 30.1503C45.599 28.8595 46.6132 27.8606 47.8733 27.1537C49.1642 26.4161 50.6855 26.0473 52.4374 26.0473V31.4872H51.1004C49.0412 31.4872 47.4738 32.0097 46.3981 33.0547C45.3531 34.0996 44.8306 35.913 44.8306 38.4946V51.864H39.5751V26.4622H44.8306V30.1503ZM68.7475 52.2789C66.3502 52.2789 64.1835 51.7411 62.2472 50.6654C60.3109 49.5589 58.7896 48.0222 57.6832 46.0552C56.5767 44.0575 56.0235 41.7525 56.0235 39.1401C56.0235 36.5584 56.5921 34.2687 57.7293 32.271C58.8664 30.2732 60.4185 28.7365 62.3855 27.6608C64.3525 26.5851 66.55 26.0473 68.978 26.0473C71.406 26.0473 73.6035 26.5851 75.5705 27.6608C77.5375 28.7365 79.0895 30.2732 80.2267 32.271C81.3639 34.2687 81.9325 36.5584 81.9325 39.1401C81.9325 41.7217 81.3485 44.0114 80.1806 46.0091C79.0127 48.0069 77.4145 49.5589 75.3861 50.6654C73.3884 51.7411 71.1755 52.2789 68.7475 52.2789ZM68.7475 47.7149C70.0998 47.7149 71.3599 47.3922 72.5278 46.7468C73.7264 46.1014 74.6946 45.1332 75.4322 43.8424C76.1698 42.5516 76.5386 40.9841 76.5386 39.1401C76.5386 37.296 76.1852 35.7439 75.4783 34.4838C74.7714 33.193 73.834 32.2249 72.6661 31.5794C71.4982 30.934 70.2381 30.6113 68.8858 30.6113C67.5335 30.6113 66.2734 30.934 65.1055 31.5794C63.9683 32.2249 63.0617 33.193 62.3855 34.4838C61.7094 35.7439 61.3713 37.296 61.3713 39.1401C61.3713 41.8754 62.0628 43.9961 63.4458 45.502C64.8596 46.9773 66.6268 47.7149 68.7475 47.7149ZM121.704 26.4622L113.821 51.864H108.288L103.171 33.1008L98.0539 51.864H92.5217L84.5923 26.4622H89.94L95.2417 46.8851L100.636 26.4622H106.122L111.285 46.7929L116.54 26.4622H121.704ZM161.395 26.4622L145.813 63.8043H140.373L145.536 51.4491L135.532 26.4622H141.387L148.533 45.8247L155.955 26.4622H161.395ZM176.841 52.2789C174.443 52.2789 172.277 51.7411 170.34 50.6654C168.404 49.5589 166.883 48.0222 165.776 46.0552C164.67 44.0575 164.117 41.7525 164.117 39.1401C164.117 36.5584 164.685 34.2687 165.822 32.271C166.96 30.2732 168.512 28.7365 170.479 27.6608C172.446 26.5851 174.643 26.0473 177.071 26.0473C179.499 26.0473 181.697 26.5851 183.664 27.6608C185.631 28.7365 187.183 30.2732 188.32 32.271C189.457 34.2687 190.026 36.5584 190.026 39.1401C190.026 41.7217 189.442 44.0114 188.274 46.0091C187.106 48.0069 185.508 49.5589 183.479 50.6654C181.481 51.7411 179.269 52.2789 176.841 52.2789ZM176.841 47.7149C178.193 47.7149 179.453 47.3922 180.621 46.7468C181.82 46.1014 182.788 45.1332 183.525 43.8424C184.263 42.5516 184.632 40.9841 184.632 39.1401C184.632 37.296 184.278 35.7439 183.571 34.4838C182.865 33.193 181.927 32.2249 180.759 31.5794C179.591 30.934 178.331 30.6113 176.979 30.6113C175.627 30.6113 174.367 30.934 173.199 31.5794C172.061 32.2249 171.155 33.193 170.479 34.4838C169.802 35.7439 169.464 37.296 169.464 39.1401C169.464 41.8754 170.156 43.9961 171.539 45.502C172.953 46.9773 174.72 47.7149 176.841 47.7149ZM218.687 26.4622V51.864H213.431V48.8674C212.601 49.9124 211.51 50.7422 210.158 51.3569C208.836 51.9408 207.422 52.2328 205.917 52.2328C203.919 52.2328 202.121 51.8179 200.523 50.9881C198.955 50.1583 197.71 48.9289 196.788 47.3C195.897 45.6711 195.452 43.7041 195.452 41.399V26.4622H200.661V40.6153C200.661 42.8896 201.23 44.6415 202.367 45.8708C203.504 47.0695 205.056 47.6688 207.023 47.6688C208.99 47.6688 210.542 47.0695 211.679 45.8708C212.847 44.6415 213.431 42.8896 213.431 40.6153V26.4622H218.687ZM231.337 30.1503C232.106 28.8595 233.12 27.8606 234.38 27.1537C235.671 26.4161 237.192 26.0473 238.944 26.0473V31.4872H237.607C235.548 31.4872 233.981 32.0097 232.905 33.0547C231.86 34.0996 231.337 35.913 231.337 38.4946V51.864H226.082V26.4622H231.337V30.1503ZM271.287 20.5612L273.361 24.2493L267.045 26.6005L273.361 28.9517L271.241 32.732L265.985 28.5829L266.953 35.2675H262.712L263.588 28.5829L258.332 32.8242L256.119 28.9056L262.389 26.5544L256.119 24.2954L258.24 20.5151L263.634 24.6642L262.712 17.9335H266.999L265.985 24.6642L271.287 20.5612ZM8.06773 101.271C9.17416 99.5191 10.6955 98.09 12.6318 96.9835C14.568 95.8771 16.704 95.3239 19.0398 95.3239C22.0825 95.3239 24.5105 96.2305 26.3238 98.0439C28.1679 99.8265 29.0899 102.254 29.0899 105.328C29.0899 106.25 28.9977 107.218 28.8133 108.232C28.3523 110.814 27.4303 113.088 26.0472 115.055C24.6642 117.022 22.9585 118.544 20.93 119.619C18.9323 120.695 16.7809 121.233 14.4758 121.233C12.1093 121.233 10.1577 120.695 8.62094 119.619C7.08423 118.513 6.05464 117.084 5.53216 115.332L4.56403 120.864H1.38304L7.42231 86.749H10.6033L8.06773 101.271ZM25.5401 108.232C25.6938 107.31 25.7706 106.527 25.7706 105.881C25.7706 103.453 25.0484 101.563 23.6039 100.211C22.1901 98.8276 20.3153 98.1361 17.9795 98.1361C16.2584 98.1361 14.6141 98.551 13.0467 99.3808C11.4792 100.211 10.1423 101.394 9.03586 102.931C7.92942 104.467 7.1918 106.25 6.82299 108.278C6.66932 109.139 6.59249 109.907 6.59249 110.583C6.59249 112.981 7.31474 114.886 8.75925 116.3C10.2038 117.714 12.0785 118.421 14.3836 118.421C16.1662 118.421 17.8258 118.021 19.3625 117.222C20.93 116.392 22.2516 115.209 23.3273 113.672C24.4337 112.105 25.1713 110.291 25.5401 108.232ZM59.1851 95.6927L54.7593 120.864H51.5323L52.316 116.438C51.271 118.006 49.9187 119.204 48.2591 120.034C46.5994 120.864 44.8168 121.279 42.9113 121.279C40.3296 121.279 38.2551 120.587 36.6876 119.204C35.1202 117.791 34.3365 115.747 34.3365 113.073C34.3365 112.089 34.4133 111.198 34.567 110.399L37.1486 95.6927H40.3296L37.7941 110.03C37.6711 110.737 37.6097 111.475 37.6097 112.243C37.6097 114.272 38.1629 115.824 39.2693 116.899C40.4065 117.944 41.9739 118.467 43.9716 118.467C46.3074 118.467 48.3205 117.76 50.0109 116.346C51.7013 114.902 52.8385 112.796 53.4224 110.03L55.958 95.6927H59.1851ZM70.9784 121.233C68.4274 121.233 66.3529 120.649 64.7547 119.481C63.1565 118.282 62.3574 116.653 62.3574 114.594C62.3574 114.225 62.3728 113.949 62.4035 113.764H65.5384C65.4155 115.24 65.8457 116.423 66.8292 117.314C67.8127 118.206 69.2572 118.651 71.1628 118.651C73.099 118.651 74.6511 118.252 75.819 117.453C76.9869 116.623 77.5708 115.532 77.5708 114.179C77.5708 113.38 77.325 112.704 76.8332 112.151C76.3415 111.598 75.7268 111.152 74.9892 110.814C74.2823 110.445 73.2834 110.03 71.9926 109.569C70.3944 108.985 69.1036 108.447 68.1201 107.956C67.1673 107.433 66.3375 106.726 65.6306 105.835C64.9545 104.913 64.6164 103.76 64.6164 102.377C64.6164 100.994 65.0159 99.765 65.815 98.6893C66.6141 97.6136 67.7052 96.7838 69.0882 96.1998C70.502 95.6159 72.1002 95.3239 73.8827 95.3239C76.3722 95.3239 78.4007 95.9386 79.9681 97.1679C81.5663 98.3973 82.3654 100.026 82.3654 102.055C82.3654 102.485 82.35 102.808 82.3193 103.023H79.2766C79.3073 102.9 79.3227 102.7 79.3227 102.423C79.3227 101.071 78.7848 99.9801 77.7092 99.1503C76.6642 98.3205 75.3119 97.9056 73.6522 97.9056C71.9926 97.9056 70.6095 98.3051 69.5031 99.1042C68.4274 99.8726 67.8896 100.918 67.8896 102.239C67.8896 103.13 68.1508 103.883 68.6733 104.498C69.1958 105.082 69.8412 105.558 70.6095 105.927C71.3779 106.296 72.4075 106.726 73.6983 107.218C75.235 107.802 76.4644 108.34 77.3864 108.832C78.3392 109.323 79.1383 109.999 79.7837 110.86C80.4291 111.721 80.7518 112.796 80.7518 114.087C80.7518 116.269 79.8452 118.006 78.0319 119.297C76.2185 120.587 73.8674 121.233 70.9784 121.233ZM93.465 90.9443C92.881 90.9443 92.4047 90.7752 92.0359 90.4372C91.667 90.0683 91.4826 89.592 91.4826 89.008C91.4826 88.2089 91.7592 87.5481 92.3125 87.0257C92.8657 86.4724 93.5265 86.1958 94.2948 86.1958C94.8788 86.1958 95.3398 86.3649 95.6779 86.7029C96.0467 87.041 96.2311 87.4867 96.2311 88.0399C96.2311 88.839 95.9545 89.5305 95.4012 90.1144C94.848 90.6677 94.2026 90.9443 93.465 90.9443ZM94.2026 95.6927L89.7769 120.864H86.5498L90.9755 95.6927H94.2026ZM113.912 95.2317C116.493 95.2317 118.553 95.9386 120.089 97.3523C121.657 98.7354 122.44 100.764 122.44 103.438C122.44 104.421 122.364 105.313 122.21 106.112L119.582 120.864H116.401L118.937 106.48C119.06 105.774 119.121 105.021 119.121 104.221C119.121 102.193 118.568 100.656 117.461 99.6113C116.355 98.5663 114.803 98.0439 112.805 98.0439C110.377 98.0439 108.303 98.8122 106.582 100.349C104.86 101.886 103.739 104.145 103.216 107.126V106.988L100.773 120.864H97.5457L101.971 95.6927H105.198L104.415 100.026C105.49 98.4895 106.858 97.3062 108.518 96.4764C110.177 95.6466 111.975 95.2317 113.912 95.2317ZM142.578 95.3239C144.699 95.3239 146.512 95.7388 148.018 96.5686C149.524 97.3677 150.661 98.4741 151.429 99.8879C152.229 101.302 152.628 102.915 152.628 104.729C152.628 105.558 152.567 106.296 152.444 106.941C152.259 107.863 152.075 108.693 151.89 109.431H131.007C130.914 110.015 130.868 110.568 130.868 111.091C130.868 113.457 131.575 115.286 132.989 116.577C134.433 117.867 136.262 118.513 138.475 118.513C140.596 118.513 142.455 118.006 144.053 116.992C145.651 115.977 146.819 114.61 147.557 112.888H151.015C149.97 115.347 148.295 117.36 145.989 118.928C143.715 120.464 141.057 121.233 138.014 121.233C134.879 121.233 132.359 120.342 130.453 118.559C128.579 116.746 127.641 114.287 127.641 111.183C127.641 110.261 127.733 109.293 127.918 108.278C128.379 105.666 129.301 103.376 130.684 101.409C132.098 99.4423 133.834 97.9363 135.893 96.8913C137.953 95.8464 140.181 95.3239 142.578 95.3239ZM149.124 107.034C149.278 106.173 149.355 105.451 149.355 104.867C149.355 102.685 148.663 101.01 147.28 99.8418C145.897 98.6739 144.13 98.09 141.979 98.09C140.411 98.09 138.905 98.428 137.461 99.1042C136.016 99.7804 134.756 100.795 133.68 102.147C132.605 103.499 131.867 105.128 131.468 107.034H149.124ZM164.71 121.233C162.159 121.233 160.084 120.649 158.486 119.481C156.888 118.282 156.089 116.653 156.089 114.594C156.089 114.225 156.104 113.949 156.135 113.764H159.27C159.147 115.24 159.577 116.423 160.561 117.314C161.544 118.206 162.989 118.651 164.894 118.651C166.831 118.651 168.383 118.252 169.551 117.453C170.718 116.623 171.302 115.532 171.302 114.179C171.302 113.38 171.056 112.704 170.565 112.151C170.073 111.598 169.458 111.152 168.721 110.814C168.014 110.445 167.015 110.03 165.724 109.569C164.126 108.985 162.835 108.447 161.852 107.956C160.899 107.433 160.069 106.726 159.362 105.835C158.686 104.913 158.348 103.76 158.348 102.377C158.348 100.994 158.747 99.765 159.547 98.6893C160.346 97.6136 161.437 96.7838 162.82 96.1998C164.233 95.6159 165.832 95.3239 167.614 95.3239C170.104 95.3239 172.132 95.9386 173.7 97.1679C175.298 98.3973 176.097 100.026 176.097 102.055C176.097 102.485 176.082 102.808 176.051 103.023H173.008C173.039 102.9 173.054 102.7 173.054 102.423C173.054 101.071 172.516 99.9801 171.441 99.1503C170.396 98.3205 169.043 97.9056 167.384 97.9056C165.724 97.9056 164.341 98.3051 163.235 99.1042C162.159 99.8726 161.621 100.918 161.621 102.239C161.621 103.13 161.882 103.883 162.405 104.498C162.927 105.082 163.573 105.558 164.341 105.927C165.109 106.296 166.139 106.726 167.43 107.218C168.967 107.802 170.196 108.34 171.118 108.832C172.071 109.323 172.87 109.999 173.515 110.86C174.161 111.721 174.483 112.796 174.483 114.087C174.483 116.269 173.577 118.006 171.763 119.297C169.95 120.587 167.599 121.233 164.71 121.233ZM188.672 121.233C186.121 121.233 184.046 120.649 182.448 119.481C180.85 118.282 180.051 116.653 180.051 114.594C180.051 114.225 180.066 113.949 180.097 113.764H183.232C183.109 115.24 183.539 116.423 184.523 117.314C185.506 118.206 186.951 118.651 188.856 118.651C190.792 118.651 192.344 118.252 193.512 117.453C194.68 116.623 195.264 115.532 195.264 114.179C195.264 113.38 195.018 112.704 194.527 112.151C194.035 111.598 193.42 111.152 192.683 110.814C191.976 110.445 190.977 110.03 189.686 109.569C188.088 108.985 186.797 108.447 185.813 107.956C184.861 107.433 184.031 106.726 183.324 105.835C182.648 104.913 182.31 103.76 182.31 102.377C182.31 100.994 182.709 99.765 183.508 98.6893C184.307 97.6136 185.399 96.7838 186.782 96.1998C188.195 95.6159 189.794 95.3239 191.576 95.3239C194.066 95.3239 196.094 95.9386 197.662 97.1679C199.26 98.3973 200.059 100.026 200.059 102.055C200.059 102.485 200.043 102.808 200.013 103.023H196.97C197.001 102.9 197.016 102.7 197.016 102.423C197.016 101.071 196.478 99.9801 195.403 99.1503C194.358 98.3205 193.005 97.9056 191.346 97.9056C189.686 97.9056 188.303 98.3051 187.197 99.1042C186.121 99.8726 185.583 100.918 185.583 102.239C185.583 103.13 185.844 103.883 186.367 104.498C186.889 105.082 187.535 105.558 188.303 105.927C189.071 106.296 190.101 106.726 191.392 107.218C192.928 107.802 194.158 108.34 195.08 108.832C196.033 109.323 196.832 109.999 197.477 110.86C198.123 111.721 198.445 112.796 198.445 114.087C198.445 116.269 197.539 118.006 195.725 119.297C193.912 120.587 191.561 121.233 188.672 121.233ZM217.002 108.048C217.002 105.497 217.525 103.238 218.57 101.271C219.646 99.304 221.09 97.7826 222.903 96.7069C224.747 95.6005 226.776 95.0473 228.989 95.0473C230.987 95.0473 232.723 95.4468 234.198 96.2459C235.704 97.0143 236.903 97.9824 237.794 99.1503V95.4622H243.096V120.864H237.794V117.084C236.903 118.282 235.689 119.281 234.152 120.08C232.615 120.879 230.864 121.279 228.897 121.279C226.714 121.279 224.717 120.726 222.903 119.619C221.09 118.482 219.646 116.915 218.57 114.917C217.525 112.888 217.002 110.599 217.002 108.048ZM237.794 108.14C237.794 106.388 237.425 104.867 236.688 103.576C235.981 102.285 235.043 101.302 233.876 100.626C232.708 99.9494 231.448 99.6113 230.095 99.6113C228.743 99.6113 227.483 99.9494 226.315 100.626C225.147 101.271 224.194 102.239 223.457 103.53C222.75 104.79 222.396 106.296 222.396 108.048C222.396 109.8 222.75 111.336 223.457 112.658C224.194 113.98 225.147 114.994 226.315 115.701C227.514 116.377 228.774 116.715 230.095 116.715C231.448 116.715 232.708 116.377 233.876 115.701C235.043 115.025 235.981 114.041 236.688 112.75C237.425 111.429 237.794 109.892 237.794 108.14ZM263.276 95.0473C265.274 95.0473 267.056 95.4622 268.624 96.292C270.222 97.1218 271.467 98.3512 272.358 99.9801C273.249 101.609 273.695 103.576 273.695 105.881V120.864H268.485V106.665C268.485 104.39 267.917 102.654 266.78 101.455C265.642 100.226 264.09 99.6113 262.123 99.6113C260.156 99.6113 258.589 100.226 257.421 101.455C256.284 102.654 255.715 104.39 255.715 106.665V120.864H250.46V95.4622H255.715V98.3666C256.576 97.3216 257.667 96.5072 258.988 95.9232C260.341 95.3393 261.77 95.0473 263.276 95.0473ZM279.108 108.048C279.108 105.497 279.63 103.238 280.675 101.271C281.751 99.304 283.195 97.7826 285.009 96.7069C286.853 95.6005 288.897 95.0473 291.14 95.0473C292.8 95.0473 294.429 95.4161 296.027 96.1537C297.656 96.8606 298.947 97.8134 299.899 99.012V86.749H305.201V120.864H299.899V117.038C299.039 118.267 297.84 119.281 296.304 120.08C294.798 120.879 293.061 121.279 291.094 121.279C288.881 121.279 286.853 120.726 285.009 119.619C283.195 118.482 281.751 116.915 280.675 114.917C279.63 112.888 279.108 110.599 279.108 108.048ZM299.899 108.14C299.899 106.388 299.531 104.867 298.793 103.576C298.086 102.285 297.149 101.302 295.981 100.626C294.813 99.9494 293.553 99.6113 292.2 99.6113C290.848 99.6113 289.588 99.9494 288.42 100.626C287.252 101.271 286.3 102.239 285.562 103.53C284.855 104.79 284.502 106.296 284.502 108.048C284.502 109.8 284.855 111.336 285.562 112.658C286.3 113.98 287.252 114.994 288.42 115.701C289.619 116.377 290.879 116.715 292.2 116.715C293.553 116.715 294.813 116.377 295.981 115.701C297.149 115.025 298.086 114.041 298.793 112.75C299.531 111.429 299.899 109.892 299.899 108.14ZM8.06773 170.271C9.17416 168.519 10.6955 167.09 12.6318 165.984C14.568 164.877 16.704 164.324 19.0398 164.324C22.0825 164.324 24.5105 165.231 26.3238 167.044C28.1679 168.826 29.0899 171.254 29.0899 174.328C29.0899 175.25 28.9977 176.218 28.8133 177.232C28.3523 179.814 27.4303 182.088 26.0472 184.055C24.6642 186.022 22.9585 187.544 20.93 188.619C18.9323 189.695 16.7809 190.233 14.4758 190.233C12.1093 190.233 10.1577 189.695 8.62094 188.619C7.08423 187.513 6.05464 186.084 5.53216 184.332L4.56403 189.864H1.38304L7.42231 155.749H10.6033L8.06773 170.271ZM25.5401 177.232C25.6938 176.31 25.7706 175.527 25.7706 174.881C25.7706 172.453 25.0484 170.563 23.6039 169.211C22.1901 167.828 20.3153 167.136 17.9795 167.136C16.2584 167.136 14.6141 167.551 13.0467 168.381C11.4792 169.211 10.1423 170.394 9.03586 171.931C7.92942 173.467 7.1918 175.25 6.82299 177.278C6.66932 178.139 6.59249 178.907 6.59249 179.583C6.59249 181.981 7.31474 183.886 8.75925 185.3C10.2038 186.714 12.0785 187.421 14.3836 187.421C16.1662 187.421 17.8258 187.021 19.3625 186.222C20.93 185.392 22.2516 184.209 23.3273 182.672C24.4337 181.105 25.1713 179.291 25.5401 177.232ZM39.7303 169.718C40.7445 167.966 42.0661 166.614 43.695 165.661C45.3239 164.708 47.2141 164.232 49.3655 164.232L48.7662 167.597H47.8441C45.6313 167.597 43.7258 168.166 42.1276 169.303C40.5294 170.44 39.423 172.315 38.8083 174.927L36.1805 189.864H32.9534L37.3792 164.693H40.6062L39.7303 169.718ZM50.8548 177.232C51.3158 174.651 52.2378 172.392 53.6209 170.455C55.0039 168.488 56.6943 166.982 58.692 165.937C60.7205 164.862 62.8872 164.324 65.1923 164.324C67.5896 164.324 69.5565 164.877 71.0933 165.984C72.63 167.09 73.6288 168.504 74.0898 170.225L75.058 164.693H78.2851L73.8593 189.864H70.6322L71.6004 184.286C70.5554 186.007 69.0494 187.436 67.0824 188.573C65.1462 189.68 62.9794 190.233 60.5822 190.233C58.5844 190.233 56.8326 189.818 55.3266 188.988C53.8206 188.158 52.6527 186.99 51.8229 185.484C50.9931 183.948 50.5782 182.15 50.5782 180.091C50.5782 179.199 50.6704 178.246 50.8548 177.232ZM72.8451 177.278C72.9988 176.418 73.0756 175.649 73.0756 174.973C73.0756 172.576 72.3534 170.671 70.9088 169.257C69.4643 167.843 67.5896 167.136 65.2845 167.136C63.5019 167.136 61.8269 167.536 60.2594 168.335C58.7227 169.134 57.4165 170.302 56.3408 171.838C55.2651 173.344 54.5429 175.142 54.1741 177.232C54.0204 178.154 53.9436 178.938 53.9436 179.583C53.9436 182.011 54.6505 183.932 56.0642 185.346C57.5087 186.729 59.3835 187.421 61.6886 187.421C63.4097 187.421 65.054 187.006 66.6214 186.176C68.2196 185.346 69.5565 184.163 70.6322 182.626C71.7387 181.089 72.4763 179.307 72.8451 177.278ZM98.0535 164.232C100.635 164.232 102.694 164.939 104.231 166.352C105.799 167.735 106.582 169.764 106.582 172.438C106.582 173.421 106.505 174.313 106.352 175.112L103.724 189.864H100.543L103.079 175.48C103.201 174.774 103.263 174.021 103.263 173.221C103.263 171.193 102.71 169.656 101.603 168.611C100.497 167.566 98.9448 167.044 96.9471 167.044C94.5191 167.044 92.4445 167.812 90.7234 169.349C89.0023 170.886 87.8805 173.145 87.358 176.126V175.988L84.9146 189.864H81.6875L86.1133 164.693H89.3404L88.5566 169.026C89.6323 167.49 91 166.306 92.6597 165.476C94.3193 164.647 96.1173 164.232 98.0535 164.232ZM112.06 177.232C112.521 174.651 113.443 172.392 114.826 170.455C116.209 168.488 117.915 166.982 119.943 165.937C121.971 164.862 124.138 164.324 126.443 164.324C128.656 164.324 130.546 164.862 132.114 165.937C133.712 167.013 134.788 168.412 135.341 170.133L137.876 155.749H141.103L135.064 189.864H131.837L132.851 184.24C131.745 185.992 130.224 187.436 128.287 188.573C126.351 189.68 124.2 190.233 121.833 190.233C118.79 190.233 116.347 189.326 114.503 187.513C112.69 185.669 111.783 183.195 111.783 180.091C111.783 179.199 111.875 178.246 112.06 177.232ZM134.05 177.278C134.204 176.418 134.28 175.649 134.28 174.973C134.28 172.576 133.558 170.671 132.114 169.257C130.669 167.843 128.794 167.136 126.489 167.136C124.707 167.136 123.032 167.536 121.464 168.335C119.928 169.134 118.621 170.302 117.546 171.838C116.47 173.344 115.748 175.142 115.379 177.232C115.225 178.154 115.148 178.938 115.148 179.583C115.148 182.011 115.855 183.932 117.269 185.346C118.714 186.729 120.588 187.421 122.893 187.421C124.615 187.421 126.259 187.006 127.826 186.176C129.424 185.346 130.761 184.163 131.837 182.626C132.944 181.089 133.681 179.307 134.05 177.278ZM191.519 164.462L183.635 189.864H178.103L172.986 171.101L167.869 189.864H162.336L154.407 164.462H159.755L165.056 184.885L170.45 164.462H175.936L181.1 184.793L186.355 164.462H191.519ZM198.581 161.097C197.628 161.097 196.829 160.774 196.184 160.129C195.538 159.483 195.216 158.684 195.216 157.731C195.216 156.779 195.538 155.98 196.184 155.334C196.829 154.689 197.628 154.366 198.581 154.366C199.503 154.366 200.287 154.689 200.932 155.334C201.578 155.98 201.9 156.779 201.9 157.731C201.9 158.684 201.578 159.483 200.932 160.129C200.287 160.774 199.503 161.097 198.581 161.097ZM201.163 164.462V189.864H195.907V164.462H201.163ZM214.655 168.75V182.811C214.655 183.763 214.87 184.455 215.301 184.885C215.762 185.285 216.53 185.484 217.606 185.484H220.833V189.864H216.684C214.317 189.864 212.504 189.311 211.244 188.204C209.984 187.098 209.354 185.3 209.354 182.811V168.75H206.357V164.462H209.354V158.146H214.655V164.462H220.833V168.75H214.655ZM239.277 164.047C241.213 164.047 242.934 164.462 244.44 165.292C245.977 166.122 247.175 167.351 248.036 168.98C248.927 170.609 249.373 172.576 249.373 174.881V189.864H244.163V175.665C244.163 173.39 243.595 171.654 242.458 170.455C241.32 169.226 239.768 168.611 237.801 168.611C235.834 168.611 234.267 169.226 233.099 170.455C231.962 171.654 231.393 173.39 231.393 175.665V189.864H226.138V155.749H231.393V167.413C232.285 166.337 233.406 165.507 234.759 164.923C236.142 164.339 237.648 164.047 239.277 164.047ZM14.4758 259.279C12.0785 259.279 9.91178 258.741 7.97553 257.665C6.03927 256.559 4.51793 255.022 3.4115 253.055C2.30507 251.058 1.75185 248.752 1.75185 246.14C1.75185 243.558 2.32043 241.269 3.4576 239.271C4.59476 237.273 6.14684 235.737 8.11383 234.661C10.0808 233.585 12.2783 233.047 14.7063 233.047C17.1343 233.047 19.3318 233.585 21.2988 234.661C23.2658 235.737 24.8179 237.273 25.955 239.271C27.0922 241.269 27.6608 243.558 27.6608 246.14C27.6608 248.722 27.0768 251.011 25.9089 253.009C24.741 255.007 23.1429 256.559 21.1144 257.665C19.1167 258.741 16.9038 259.279 14.4758 259.279ZM14.4758 254.715C15.8281 254.715 17.0882 254.392 18.2561 253.747C19.4548 253.101 20.4229 252.133 21.1605 250.842C21.8981 249.552 22.2669 247.984 22.2669 246.14C22.2669 244.296 21.9135 242.744 21.2066 241.484C20.4997 240.193 19.5623 239.225 18.3944 238.579C17.2265 237.934 15.9664 237.611 14.6141 237.611C13.2618 237.611 12.0017 237.934 10.8338 238.579C9.69664 239.225 8.78998 240.193 8.11383 241.484C7.43768 242.744 7.0996 244.296 7.0996 246.14C7.0996 248.875 7.79112 250.996 9.17416 252.502C10.5879 253.977 12.3551 254.715 14.4758 254.715ZM56.3217 233.462V258.864H51.0662V255.867C50.2364 256.912 49.1453 257.742 47.793 258.357C46.4714 258.941 45.0577 259.233 43.5517 259.233C41.554 259.233 39.756 258.818 38.1578 257.988C36.5904 257.158 35.3457 255.929 34.4236 254.3C33.5323 252.671 33.0867 250.704 33.0867 248.399V233.462H38.2961V247.615C38.2961 249.89 38.8647 251.641 40.0019 252.871C41.1391 254.069 42.6911 254.669 44.6581 254.669C46.6251 254.669 48.1772 254.069 49.3143 252.871C50.4822 251.641 51.0662 249.89 51.0662 247.615V233.462H56.3217ZM68.9726 237.15C69.7409 235.859 70.7552 234.861 72.0153 234.154C73.3061 233.416 74.8275 233.047 76.5793 233.047V238.487H75.2424C73.1832 238.487 71.6157 239.01 70.54 240.055C69.4951 241.1 68.9726 242.913 68.9726 245.495V258.864H63.717V233.462H68.9726V237.15ZM103.528 259.279C101.53 259.279 99.7324 258.925 98.1342 258.219C96.5667 257.481 95.322 256.497 94.4 255.268C93.478 254.008 92.9862 252.61 92.9247 251.073H98.3647C98.4569 252.149 98.964 253.055 99.886 253.793C100.839 254.5 102.022 254.853 103.436 254.853C104.911 254.853 106.048 254.577 106.847 254.023C107.677 253.439 108.092 252.702 108.092 251.811C108.092 250.858 107.631 250.151 106.709 249.69C105.818 249.229 104.389 248.722 102.422 248.169C100.516 247.646 98.964 247.139 97.7654 246.647C96.5667 246.155 95.5218 245.402 94.6305 244.388C93.7699 243.374 93.3397 242.037 93.3397 240.377C93.3397 239.025 93.7392 237.796 94.5383 236.689C95.3374 235.552 96.4745 234.661 97.9498 234.015C99.4558 233.37 101.177 233.047 103.113 233.047C106.002 233.047 108.323 233.785 110.074 235.26C111.857 236.705 112.81 238.687 112.933 241.207H107.677C107.585 240.07 107.124 239.163 106.294 238.487C105.464 237.811 104.342 237.473 102.929 237.473C101.546 237.473 100.485 237.734 99.7477 238.257C99.0101 238.779 98.6413 239.471 98.6413 240.331C98.6413 241.007 98.8872 241.576 99.3789 242.037C99.8707 242.498 100.47 242.867 101.177 243.143C101.884 243.389 102.929 243.712 104.312 244.112C106.156 244.603 107.662 245.11 108.83 245.633C110.028 246.125 111.058 246.862 111.918 247.846C112.779 248.829 113.225 250.135 113.255 251.764C113.255 253.209 112.856 254.5 112.057 255.637C111.258 256.774 110.121 257.665 108.645 258.311C107.201 258.956 105.495 259.279 103.528 259.279ZM142.676 245.541C142.676 246.493 142.615 247.354 142.492 248.122H123.083C123.237 250.151 123.99 251.78 125.342 253.009C126.695 254.239 128.354 254.853 130.321 254.853C133.149 254.853 135.146 253.67 136.314 251.303H141.985C141.216 253.639 139.818 255.56 137.79 257.066C135.792 258.541 133.302 259.279 130.321 259.279C127.893 259.279 125.711 258.741 123.775 257.665C121.869 256.559 120.363 255.022 119.257 253.055C118.181 251.058 117.643 248.752 117.643 246.14C117.643 243.528 118.166 241.238 119.211 239.271C120.286 237.273 121.777 235.737 123.683 234.661C125.619 233.585 127.832 233.047 130.321 233.047C132.718 233.047 134.854 233.57 136.729 234.615C138.604 235.66 140.064 237.135 141.109 239.04C142.154 240.915 142.676 243.082 142.676 245.541ZM137.19 243.881C137.16 241.945 136.468 240.393 135.116 239.225C133.763 238.057 132.088 237.473 130.091 237.473C128.277 237.473 126.725 238.057 125.434 239.225C124.144 240.362 123.375 241.914 123.129 243.881H137.19ZM153.565 237.15C154.333 235.859 155.347 234.861 156.608 234.154C157.898 233.416 159.42 233.047 161.172 233.047V238.487H159.835C157.775 238.487 156.208 239.01 155.132 240.055C154.087 241.1 153.565 242.913 153.565 245.495V258.864H148.309V233.462H153.565V237.15ZM176.283 254.162L183.475 233.462H189.053L179.372 258.864H173.102L163.467 233.462H169.091L176.283 254.162ZM196.161 230.097C195.208 230.097 194.409 229.774 193.763 229.129C193.118 228.483 192.795 227.684 192.795 226.731C192.795 225.779 193.118 224.98 193.763 224.334C194.409 223.689 195.208 223.366 196.161 223.366C197.083 223.366 197.866 223.689 198.512 224.334C199.157 224.98 199.48 225.779 199.48 226.731C199.48 227.684 199.157 228.483 198.512 229.129C197.866 229.774 197.083 230.097 196.161 230.097ZM198.742 233.462V258.864H193.487V233.462H198.742ZM204.352 246.14C204.352 243.528 204.874 241.238 205.919 239.271C206.995 237.273 208.47 235.737 210.345 234.661C212.22 233.585 214.371 233.047 216.799 233.047C219.872 233.047 222.408 233.785 224.406 235.26C226.434 236.705 227.802 238.779 228.509 241.484H222.838C222.377 240.224 221.64 239.24 220.625 238.533C219.611 237.826 218.336 237.473 216.799 237.473C214.648 237.473 212.926 238.241 211.636 239.778C210.375 241.284 209.745 243.405 209.745 246.14C209.745 248.875 210.375 251.011 211.636 252.548C212.926 254.085 214.648 254.853 216.799 254.853C219.842 254.853 221.855 253.516 222.838 250.842H228.509C227.771 253.424 226.388 255.483 224.36 257.02C222.331 258.526 219.811 259.279 216.799 259.279C214.371 259.279 212.22 258.741 210.345 257.665C208.47 256.559 206.995 255.022 205.919 253.055C204.874 251.058 204.352 248.752 204.352 246.14ZM257.488 245.541C257.488 246.493 257.427 247.354 257.304 248.122H237.895C238.049 250.151 238.802 251.78 240.154 253.009C241.507 254.239 243.166 254.853 245.133 254.853C247.961 254.853 249.959 253.67 251.126 251.303H256.797C256.029 253.639 254.63 255.56 252.602 257.066C250.604 258.541 248.114 259.279 245.133 259.279C242.705 259.279 240.523 258.741 238.587 257.665C236.681 256.559 235.175 255.022 234.069 253.055C232.993 251.058 232.455 248.752 232.455 246.14C232.455 243.528 232.978 241.238 234.023 239.271C235.099 237.273 236.589 235.737 238.495 234.661C240.431 233.585 242.644 233.047 245.133 233.047C247.531 233.047 249.667 233.57 251.541 234.615C253.416 235.66 254.876 237.135 255.921 239.04C256.966 240.915 257.488 243.082 257.488 245.541ZM252.002 243.881C251.972 241.945 251.28 240.393 249.928 239.225C248.575 238.057 246.9 237.473 244.903 237.473C243.089 237.473 241.537 238.057 240.247 239.225C238.956 240.362 238.187 241.914 237.941 243.881H252.002ZM290.172 227.561L292.247 231.249L285.931 233.6L292.247 235.952L290.126 239.732L284.87 235.583L285.839 242.268H281.597L282.473 235.583L277.218 239.824L275.005 235.906L281.275 233.554L275.005 231.295L277.125 227.515L282.519 231.664L281.597 224.933H285.885L284.87 231.664L290.172 227.561Z" fill="black"/>
</svg>
