<svg width="105" height="41" viewBox="0 0 105 41" fill="none" xmlns="http://www.w3.org/2000/svg">
<path d="M61.3163 29L80.3998 1.9928L99.4833 29H61.3163Z" stroke="#5199CC" stroke-width="2.3"/>
<path d="M71.4127 23.85L80.1004 11.5033L88.7881 23.85H71.4127Z" stroke="#5199CC" stroke-width="1.5"/>
<path d="M93.8933 26.8V9.65291H99.4013V26.8H93.8933Z" fill="black"/>
<path d="M13.4086 26.8V20.2951H7.35231V26.8H1.84431V9.65291H7.35231V15.9086H13.4086V9.65291H18.9166V26.8H13.4086ZM22.8547 9.65291H37.6839V13.7652H28.3627V16.1329H36.338V20.0708H28.3627V22.6877H37.8584V26.8H22.8547V9.65291ZM41.0904 9.65291H46.5984V22.4135H55.3962V26.8H41.0904V9.65291ZM67.5834 9.65291C68.6468 9.65291 69.5939 9.90214 70.4246 10.4006C71.2554 10.8824 71.9034 11.5554 72.3686 12.4194C72.8339 13.2668 73.0665 14.2221 73.0665 15.2855V15.6095C73.0665 16.6729 72.8339 17.6366 72.3686 18.5006C71.9034 19.3646 71.2554 20.0458 70.4246 20.5443C69.5939 21.0261 68.6468 21.2671 67.5834 21.2671H63.4711V26.8H57.9631V9.65291H67.5834ZM63.4711 17.2544H65.7391C66.3206 17.2544 66.7526 17.1049 67.0351 16.8058C67.3342 16.5068 67.4837 16.0997 67.4837 15.5846V15.3852C67.4837 14.8535 67.3342 14.4464 67.0351 14.164C66.7526 13.8649 66.3206 13.7154 65.7391 13.7154H63.4711V17.2544Z" fill="black"/>
</svg>
